<?xml version="1.0" encoding="utf-8"?>
<!-- Generator: Adobe Illustrator 23.0.6, SVG Export Plug-In . SVG Version: 6.00 Build 0)  -->
<svg version="1.1" xmlns="http://www.w3.org/2000/svg" xmlns:xlink="http://www.w3.org/1999/xlink" x="0px" y="0px"
	 viewBox="0 0 500 500" style="enable-background:new 0 0 500 500;" xml:space="preserve">
<style type="text/css">
	.st0{display:none;}
	.st1{display:inline;}
	.st2{clip-path:url(#SVGID_2_);fill:#FFFFFF;}
	.st3{clip-path:url(#SVGID_2_);fill:#F8FCFD;}
	.st4{clip-path:url(#SVGID_2_);fill:#F3FAFC;}
	.st5{clip-path:url(#SVGID_2_);fill:#EFF9FB;}
	.st6{clip-path:url(#SVGID_2_);fill:#ECF7FA;}
	.st7{clip-path:url(#SVGID_2_);fill:#E9F6F9;}
	.st8{clip-path:url(#SVGID_2_);fill:#E7F5F9;}
	.st9{clip-path:url(#SVGID_2_);fill:#E5F4F8;}
	.st10{clip-path:url(#SVGID_2_);fill:#E3F4F8;}
	.st11{clip-path:url(#SVGID_2_);fill:#E2F3F7;}
	.st12{clip-path:url(#SVGID_2_);fill:#E1F3F7;}
	.st13{clip-path:url(#SVGID_2_);fill:#E0F2F7;}
	.st14{clip-path:url(#SVGID_2_);fill:#DFF2F7;}
	.st15{clip-path:url(#SVGID_2_);fill:#DEF2F7;}
	.st16{clip-path:url(#SVGID_2_);fill:#DEF2F6;}
	.st17{clip-path:url(#SVGID_2_);fill:#DDF1F6;}
	.st18{fill:#FEDC56;}
	.st19{clip-path:url(#SVGID_4_);}
	.st20{fill:none;}
	.st21{fill:#FFFFFF;}
	.st22{fill:#F16163;}
	.st23{fill:url(#SVGID_5_);}
	.st24{clip-path:url(#SVGID_6_);}
	.st25{fill:#FFFFFF;stroke:#F16163;stroke-width:2;stroke-miterlimit:10;}
</style>
<g id="Layer_1" class="st0">
	<g class="st1">
		<defs>
			<circle id="SVGID_1_" cx="250" cy="275.8" r="222.3"/>
		</defs>
		<clipPath id="SVGID_2_">
			<use xlink:href="#SVGID_1_"  style="overflow:visible;"/>
		</clipPath>
		<rect x="27.7" y="53.5" class="st2" width="444.6" height="444.6"/>
		<circle class="st2" cx="250" cy="275.8" r="222.3"/>
		<circle class="st3" cx="250" cy="275.8" r="218"/>
		<circle class="st4" cx="250" cy="275.8" r="213.7"/>
		<circle class="st5" cx="250" cy="275.8" r="209.4"/>
		<circle class="st6" cx="250" cy="275.8" r="205.1"/>
		<circle class="st7" cx="250" cy="275.8" r="200.8"/>
		<circle class="st8" cx="250" cy="275.8" r="196.5"/>
		<circle class="st9" cx="250" cy="275.8" r="192.2"/>
		<circle class="st10" cx="250" cy="275.8" r="187.9"/>
		<circle class="st11" cx="250" cy="275.8" r="183.6"/>
		<circle class="st12" cx="250" cy="275.8" r="179.3"/>
		<circle class="st13" cx="250" cy="275.8" r="175"/>
		<circle class="st14" cx="250" cy="275.8" r="170.7"/>
		<circle class="st15" cx="250" cy="275.8" r="166.5"/>
		<circle class="st16" cx="250" cy="275.8" r="162.2"/>
		<circle class="st16" cx="250" cy="275.8" r="157.9"/>
		<circle class="st17" cx="250" cy="275.8" r="153.6"/>
		<circle class="st17" cx="250" cy="275.8" r="149.3"/>
		<circle class="st17" cx="250" cy="275.8" r="145"/>
		<circle class="st17" cx="250" cy="275.8" r="140.7"/>
		<circle class="st17" cx="250" cy="275.8" r="136.4"/>
		<circle class="st17" cx="250" cy="275.8" r="132.1"/>
		<circle class="st17" cx="250" cy="275.8" r="127.8"/>
		<circle class="st17" cx="250" cy="275.8" r="123.5"/>
		<circle class="st17" cx="250" cy="275.8" r="119.2"/>
		<circle class="st17" cx="250" cy="275.8" r="114.9"/>
		<circle class="st17" cx="250" cy="275.8" r="110.6"/>
		<circle class="st17" cx="250" cy="275.8" r="106.3"/>
		<circle class="st17" cx="250" cy="275.8" r="102"/>
		<circle class="st17" cx="250" cy="275.8" r="97.7"/>
		<circle class="st17" cx="250" cy="275.8" r="93.4"/>
	</g>
	<g class="st1">
		<g id="SVGID_24_">
			<circle class="st18" cx="250" cy="221.5" r="219.6"/>
		</g>
	</g>
	<g class="st1">
		<defs>
			<circle id="SVGID_3_" cx="250" cy="221.5" r="219.6"/>
		</defs>
		<clipPath id="SVGID_4_">
			<use xlink:href="#SVGID_3_"  style="overflow:visible;"/>
		</clipPath>
		<g class="st19">
			<g>
				<circle class="st20" cx="246.1" cy="221.5" r="219.6"/>
			</g>
			<g>
				<path class="st21" d="M373.5,470.5L373.5,470.5l-254.6,0v0c0-14.4,2.4-28.2,6.8-41.1c0.8-2.3,1.7-4.6,2.6-6.9v0
					c0.9-2.3,1.9-4.5,3-6.7c4.2-8.9,9.4-17.1,15.5-24.7c1.5-1.9,3.1-3.7,4.7-5.5c0.8-0.9,1.6-1.8,2.5-2.7c0.8-0.9,1.7-1.7,2.5-2.6
					c4.3-4.3,8.9-8.2,13.7-11.9c2.4-1.8,4.9-3.5,7.4-5.1c0.9-0.6,1.8-1.2,2.8-1.7c0.4-0.2,0.8-0.5,1.2-0.7c1.2-0.7,2.5-1.5,3.8-2.2
					c0,0,0.1,0,0.1,0c1-0.6,2-1.2,3-1.8c3-1.8,5.9-3.8,8.6-6c8.8-7,16.1-15.8,21.3-25.9c1.7-3.2,3.1-6.5,4.3-9.9
					c3-8.5,4.7-17.6,4.7-27.2l18.5,0.1h0l19,0.1c0,9.4,1.6,18.5,4.6,26.9c1.2,3.4,2.6,6.7,4.3,9.9c5.2,10.1,12.5,19,21.3,26
					c1.7,1.4,3.5,2.7,5.3,3.9c0.2,0.1,0.4,0.3,0.6,0.4c0.9,0.6,1.7,1.2,2.6,1.7c1,0.6,2,1.2,3,1.8c0.2,0,0.3,0.1,0.4,0.2
					c1.1,0.6,2.3,1.3,3.4,1.9c1,0.6,1.9,1.1,2.9,1.7c1,0.6,2,1.2,2.9,1.9c2,1.3,3.9,2.7,5.8,4.1c0,0,0,0,0,0h0
					c2.4,1.8,4.8,3.7,7.1,5.7c2.3,2,4.5,4,6.6,6.2C359.2,403.4,373.5,435.2,373.5,470.5z"/>
			</g>
			<g>
				<path class="st21" d="M373.5,470.5H118.9c0-14.4,2.4-28.2,6.8-41.1c0.8-2.3,1.7-4.6,2.6-6.9v0c0.9-2.3,1.9-4.5,3-6.7
					c4.2-8.9,9.4-17.1,15.5-24.7c1.5-1.9,3.1-3.7,4.7-5.5c0.8-0.9,1.6-1.8,2.5-2.7c0.8-0.9,1.7-1.7,2.5-2.6
					c4.3-4.3,8.9-8.2,13.7-11.9c2.4-1.8,4.9-3.5,7.4-5.1c0.9-0.6,1.8-1.2,2.8-1.7c0.4-0.3,0.8-0.5,1.2-0.7c1.2-0.7,2.5-1.5,3.8-2.2
					c0,0,0.1,0,0.1,0v0c1-0.6,2-1.2,3-1.8c3-1.8,5.9-3.8,8.6-6c0,0,0,0,0,0c12.4,12.7,29.7,20.6,48.9,20.7h0.2
					c19.2,0,36.6-7.9,49-20.6l0,0c1.7,1.4,3.5,2.7,5.3,4c0.2,0.1,0.4,0.3,0.6,0.4c0.9,0.6,1.8,1.1,2.6,1.7c1,0.6,2,1.2,3,1.7
					c0.2,0,0.3,0.1,0.4,0.2c1.1,0.6,2.3,1.3,3.4,1.9c1,0.6,1.9,1.2,2.9,1.8c1,0.6,2,1.2,2.9,1.9c2,1.3,3.9,2.7,5.8,4.1h0
					c2.4,1.8,4.8,3.7,7.1,5.7c2.3,2,4.5,4,6.6,6.2C359.2,403.4,373.5,435.2,373.5,470.5z"/>
				<path class="st22" d="M374.5,471.5H117.9v-1c0-14.2,2.3-28.2,6.8-41.4c0.8-2.3,1.6-4.6,2.5-6.8l0.1-0.2c0.8-2.1,1.8-4.3,3-6.8
					c4.2-8.8,9.4-17.2,15.6-24.9c1.7-2.1,3.2-3.9,4.7-5.6c0.8-0.9,1.6-1.7,2.4-2.6l0.1-0.1c0.9-0.9,1.7-1.7,2.6-2.6
					c4.2-4.2,8.8-8.2,13.9-11.9c2.4-1.8,4.8-3.5,7.5-5.2c1-0.6,1.9-1.2,2.8-1.7c0.4-0.2,0.7-0.5,1.1-0.7l0.1-0.1
					c1.1-0.7,2.3-1.4,3.7-2.1l0.4-0.4l0.2,0.1c0.9-0.5,1.7-1,2.6-1.5c3-1.8,5.9-3.9,8.4-6l0.7-0.6l0.6,0.6
					c12.8,13.1,30,20.4,48.3,20.4h0.2c18.3,0,35.5-7.2,48.3-20.3l0.6-0.7l0.7,0.6c1.6,1.4,3.4,2.7,5.2,3.9c0.2,0.2,0.4,0.3,0.5,0.4
					c0.9,0.6,1.7,1.1,2.6,1.7c0.9,0.5,1.8,1.1,2.9,1.7c0.2,0.1,0.3,0.1,0.4,0.2l0.1,0.1c1.1,0.6,2.3,1.3,3.4,2c1,0.6,2,1.2,2.9,1.8
					c0.9,0.5,1.9,1.2,3,2c1.7,1.1,3.5,2.4,5.6,3.9l0.3,0.2c2.6,2,5,3.9,7.1,5.8c2.2,1.9,4.4,3.9,6.7,6.2
					c24.3,24.2,37.7,56.5,37.7,90.8V471.5z M119.9,469.5h252.6c-0.3-33.4-13.4-64.8-37.1-88.4c-2.2-2.2-4.4-4.2-6.6-6.1
					c-2.1-1.8-4.3-3.6-6.8-5.5h0l-0.3-0.2c-2.1-1.6-4-2.9-5.8-4.1c-1-0.7-2-1.4-2.9-1.9c-0.9-0.6-1.8-1.1-2.8-1.7l-0.1-0.1
					c-1.1-0.7-2.3-1.4-3.3-1.9c0,0-0.1,0-0.2-0.1l-0.3-0.1c-1.1-0.6-2.1-1.2-3-1.8c-0.9-0.6-1.8-1.1-2.7-1.7
					c-0.2-0.1-0.4-0.3-0.6-0.4c-1.6-1.1-3.2-2.2-4.6-3.4c-13.2,13.1-30.6,20.3-49.1,20.3h-0.2c-18.6,0-36-7.3-49.1-20.4
					c-2.4,2-5.1,3.8-8,5.6c-0.9,0.5-1.7,1-2.6,1.5v1.1l-1-0.5c-1.2,0.7-2.3,1.3-3.4,1.9l-0.1,0.1c-0.4,0.2-0.7,0.4-1.1,0.7
					c-0.9,0.6-1.8,1.1-2.7,1.7c-2.6,1.7-5,3.3-7.4,5.1c-4.9,3.7-9.5,7.6-13.6,11.8c-0.9,0.9-1.7,1.7-2.5,2.6l-0.1,0.1
					c-0.8,0.8-1.6,1.7-2.3,2.5c-1.5,1.7-3,3.5-4.7,5.5c-6.1,7.6-11.3,15.9-15.4,24.5c-1.1,2.4-2.1,4.5-2.9,6.5v0l-0.1,0.2
					c-0.9,2.3-1.8,4.6-2.6,6.9C122.3,442.4,120,455.8,119.9,469.5z M185,359.5C185,359.5,185,359.5,185,359.5L185,359.5z"/>
			</g>
			<g>
				<g>
					<path class="st22" d="M310.7,360.7L310.7,360.7l-2.6,2.7c-16.5,16.8-38.4,26-61.9,26c0,0,0,0,0,0c-23.7-0.1-45.6-9.3-62-26.1
						l-2.5-2.6l0,0c1.2-0.7,2.5-1.5,3.8-2.2c0,0,0.1,0,0.1,0v0c1-0.6,2-1.2,3-1.8c3-1.8,5.9-3.8,8.6-6c0,0,0,0,0,0
						c12.4,12.7,29.7,20.6,48.9,20.7h0.2c19.2,0,36.6-7.9,49-20.6l0,0c1.7,1.4,3.5,2.7,5.3,4c0.2,0.1,0.4,0.3,0.6,0.4
						c0.9,0.6,1.8,1.1,2.6,1.7c1,0.6,2,1.2,3,1.7c0.2,0,0.3,0.1,0.4,0.2C308.4,359.4,309.6,360,310.7,360.7z"/>
				</g>
			</g>
			<g>
				<path class="st21" d="M343.9,151.5v58.6c0,1.1,0,2.1,0,3.2c0,0.8,0,1.6-0.1,2.4c0,0.8-0.1,1.6-0.1,2.4c0,0.6-0.1,1.1-0.1,1.7
					c0,0.3,0,0.6-0.1,1c0,0.6-0.1,1.2-0.2,1.8c0,0.6-0.1,1.2-0.2,1.7c0,0.6-0.1,1.1-0.2,1.7c-0.2,1.7-0.5,3.5-0.8,5.2
					c-0.2,1.2-0.4,2.3-0.7,3.4c0,0,0,0.1,0,0.1c0,0.2,0,0.3-0.1,0.5c0,0,0,0.1,0,0.1c0,0,0,0.1,0,0.1c0,0.2-0.1,0.5-0.2,0.7
					c0,0.3-0.1,0.6-0.2,0.9c0,0.3-0.1,0.6-0.2,0.9c-0.1,0.4-0.2,0.9-0.3,1.3c-0.1,0.2-0.1,0.5-0.2,0.7c0,0.2-0.1,0.4-0.2,0.6
					c-0.5,2-1.1,3.9-1.7,5.8c-0.3,0.9-0.6,1.8-0.9,2.7c0,0.1-0.1,0.2-0.1,0.3c-0.3,0.8-0.6,1.6-0.9,2.4c-0.1,0.2-0.2,0.5-0.3,0.7
					c-0.3,0.8-0.6,1.5-0.9,2.3c-0.4,0.9-0.7,1.8-1.1,2.8c-0.3,0.8-0.7,1.6-1.1,2.4c0,0.1-0.1,0.3-0.2,0.4c-0.4,0.9-0.8,1.7-1.2,2.6
					c-0.4,0.9-0.8,1.8-1.3,2.7c-0.9,1.8-1.8,3.5-2.7,5.2l-1.3,2.3c-3.7,6.4-7.8,12.3-12.3,17.9c-0.6,0.8-1.2,1.6-1.9,2.3
					c-0.9,1.1-1.8,2.1-2.7,3.2c-0.8,0.9-1.6,1.8-2.5,2.7c-2.3,2.5-4.7,4.8-7.1,7c-0.5,0.5-1,0.9-1.5,1.4c-0.8,0.7-1.6,1.5-2.5,2.2
					c-0.6,0.6-1.3,1.1-2,1.7c-1.7,1.4-3.5,2.8-5.2,4.1c-0.7,0.6-1.5,1.1-2.2,1.6c-1.2,0.9-2.4,1.7-3.6,2.5c-0.7,0.5-1.4,0.9-2.1,1.3
					c-2.2,1.4-4.5,2.7-6.7,3.8c-0.2,0.1-0.4,0.2-0.6,0.3c-0.6,0.3-1.2,0.6-1.8,0.9c-0.6,0.3-1.2,0.6-1.9,0.9c-0.8,0.4-1.6,0.7-2.4,1
					c-0.3,0.1-0.6,0.3-0.9,0.4c-0.9,0.4-1.9,0.7-2.8,1.1c-1.2,0.4-2.4,0.8-3.5,1.1c-0.8,0.2-1.7,0.5-2.5,0.6c0,0-0.1,0-0.2,0
					c-0.8,0.2-1.6,0.4-2.4,0.5c-0.2,0-0.4,0.1-0.6,0.1c-0.7,0.1-1.3,0.2-2,0.3c-1,0.1-1.9,0.3-2.9,0.3c-0.3,0-0.6,0.1-1,0.1
					c-0.8,0-1.5,0.1-2.3,0.1h-0.1c-0.7,0-1.5,0-2.2-0.1c-0.3,0-0.6,0-0.9-0.1c-0.7,0-1.4-0.1-2.1-0.2c-0.1,0-0.3,0-0.5,0
					c-0.9-0.1-1.8-0.3-2.7-0.4c-0.8-0.1-1.5-0.3-2.3-0.5c-4.1-0.9-8.3-2.4-12.6-4.2c-1.4-0.6-2.9-1.3-4.3-2.1
					c-2.2-1.1-4.5-2.4-6.7-3.7c-1.8-1.1-3.7-2.3-5.5-3.6c-0.9-0.6-1.8-1.3-2.7-2c-2.9-2.1-5.7-4.4-8.5-6.8c-0.8-0.7-1.5-1.4-2.3-2.1
					c-0.8-0.7-1.5-1.4-2.3-2.1c-1.9-1.8-3.7-3.7-5.5-5.6c-0.7-0.7-1.4-1.5-2.1-2.3c-1.9-2.2-3.8-4.4-5.6-6.7c-0.7-0.8-1.3-1.7-2-2.6
					c-2.4-3.2-4.7-6.6-6.9-10.1c-0.6-0.9-1.2-1.9-1.7-2.8c-0.7-1.1-1.3-2.3-2-3.4c-2.4-4.3-4.6-8.8-6.5-13.4c-0.3-0.7-0.6-1.3-0.8-2
					c-0.4-0.9-0.7-1.8-1-2.6c-0.5-1.3-0.9-2.5-1.4-3.8c-0.4-1.3-0.8-2.6-1.2-3.9c-0.4-1.2-0.7-2.5-1.1-3.8c-0.4-1.3-0.7-2.7-1.1-4.1
					c0-0.1-0.1-0.3-0.1-0.4c-0.5-1.9-0.9-3.9-1.2-5.8c-0.5-2.6-0.9-5.2-1.2-7.9c-0.1-0.8-0.2-1.7-0.3-2.5c-0.1-0.9-0.2-1.8-0.2-2.6
					c-0.1-1.6-0.2-3.2-0.2-4.9c0-1.1,0-2.1,0-3.2v-58.6c0-13.4,2.7-26.2,7.6-37.8c0.1-0.3,0.3-0.6,0.4-1c1.9-4.4,4.1-8.6,6.6-12.6
					c0.4-0.6,0.8-1.3,1.2-1.9c17.4-26.7,47.5-44.3,81.8-44.3h0.1c7.4,0,14.7,0.8,21.6,2.4c6.4,1.4,12.5,3.5,18.3,6.1
					c7.9,3.5,15.3,8.1,21.9,13.6c5.6,4.6,10.6,9.7,15,15.4c1.7,2.2,3.4,4.5,4.9,6.8c0.4,0.6,0.9,1.3,1.2,2c2.5,4,4.7,8.2,6.6,12.6
					l0.4,1c4.8,11.4,7.5,23.9,7.6,37C343.9,150.9,343.9,151.2,343.9,151.5z"/>
			</g>
			<g>
				<path class="st22" d="M343.9,210.1c0,1.1,0,2.1,0,3.2c0,0.8,0,1.6-0.1,2.4c0,0.8-0.1,1.6-0.1,2.4c0,0.6-0.1,1.1-0.1,1.7
					c0,0.3,0,0.6-0.1,1c0,0.6-0.1,1.2-0.2,1.8c0,0.6-0.1,1.2-0.2,1.7c0,0.6-0.1,1.1-0.2,1.7c-0.2,1.7-0.5,3.5-0.8,5.2
					c-0.2,1-0.4,2-0.6,3c0,0.2-0.1,0.4-0.1,0.6c0,0.2,0,0.3-0.1,0.5c0,0,0,0.1,0,0.1c0,0,0,0.1,0,0.1c0,0,0,0,0,0
					c0,0.3-0.1,0.5-0.2,0.8c0,0.3-0.1,0.5-0.2,0.8c0,0.3-0.1,0.6-0.2,0.9c-0.1,0.5-0.2,0.9-0.4,1.4c0,0.2-0.1,0.4-0.1,0.6
					c0,0.2-0.1,0.4-0.2,0.6c-0.5,2-1.1,3.9-1.7,5.8c-0.3,0.9-0.6,1.8-0.9,2.7c0,0.1-0.1,0.2-0.1,0.3c-0.3,0.8-0.6,1.6-0.9,2.4
					c-0.1,0.2-0.2,0.5-0.3,0.7c-0.3,0.8-0.6,1.5-0.9,2.3c-0.4,0.9-0.7,1.8-1.1,2.8c-0.3,0.8-0.7,1.6-1.1,2.4c0,0.1-0.1,0.3-0.2,0.4
					c-0.4,0.9-0.8,1.7-1.2,2.6c-0.4,0.9-0.8,1.8-1.3,2.7c-0.9,1.8-1.8,3.5-2.7,5.2l-1.3,2.3c-3.7,6.4-7.8,12.3-12.3,17.9
					c-0.6,0.8-1.2,1.6-1.9,2.3c-0.9,1.1-1.8,2.1-2.7,3.2c-0.8,0.9-1.6,1.8-2.5,2.7c-2.3,2.5-4.7,4.8-7.1,7c-0.5,0.5-1,0.9-1.5,1.4
					c-0.8,0.7-1.6,1.5-2.5,2.2c-0.6,0.6-1.3,1.1-2,1.7c-1.7,1.4-3.5,2.8-5.2,4.1c-0.7,0.6-1.5,1.1-2.2,1.6c-1.2,0.9-2.4,1.7-3.6,2.5
					c-0.7,0.5-1.4,0.9-2.1,1.3c-2.2,1.4-4.5,2.7-6.7,3.8c-0.2,0.1-0.4,0.2-0.6,0.3c-0.6,0.3-1.2,0.6-1.8,0.9
					c-0.6,0.3-1.2,0.6-1.9,0.9c-0.8,0.4-1.6,0.7-2.4,1c-0.3,0.1-0.6,0.3-0.9,0.4c-0.9,0.4-1.9,0.7-2.8,1.1c-1.2,0.4-2.4,0.8-3.5,1.1
					c-0.8,0.2-1.7,0.5-2.5,0.6c0,0-0.1,0-0.2,0c-0.8,0.2-1.6,0.4-2.4,0.5c-0.2,0-0.4,0.1-0.6,0.1c-0.7,0.1-1.3,0.2-2,0.3
					c-1,0.1-1.9,0.3-2.9,0.3c-0.3,0-0.6,0.1-1,0.1c-0.8,0-1.5,0.1-2.3,0.1h-0.1c-0.7,0-1.5,0-2.2-0.1c-0.3,0-0.6,0-0.9-0.1
					c-0.7,0-1.4-0.1-2.1-0.2c-0.1,0-0.3,0-0.5,0c-0.9-0.1-1.8-0.3-2.7-0.4c-0.8-0.1-1.5-0.3-2.3-0.5c-4.1-0.9-8.3-2.4-12.6-4.2
					c-1.4-0.6-2.9-1.3-4.3-2.1c-2.2-1.1-4.5-2.4-6.7-3.7c-1.8-1.1-3.7-2.3-5.5-3.6c-0.9-0.6-1.8-1.3-2.7-2c-2.9-2.1-5.7-4.4-8.5-6.8
					c-0.8-0.7-1.5-1.4-2.3-2.1c-0.8-0.7-1.5-1.4-2.3-2.1c-1.9-1.8-3.7-3.7-5.5-5.6c-0.7-0.7-1.4-1.5-2.1-2.3
					c-1.9-2.2-3.8-4.4-5.6-6.7c-0.7-0.8-1.3-1.7-2-2.6c-2.4-3.2-4.7-6.6-6.9-10.1c-0.6-0.9-1.2-1.9-1.7-2.8c-0.7-1.1-1.3-2.3-2-3.4
					c-2.4-4.3-4.6-8.8-6.5-13.4c-0.3-0.7-0.6-1.3-0.8-2c-0.4-0.9-0.7-1.8-1-2.6c-0.5-1.3-0.9-2.5-1.4-3.8s-0.8-2.6-1.2-3.9
					c-0.4-1.2-0.7-2.5-1.1-3.8c-0.4-1.3-0.7-2.7-1.1-4.1c0-0.1-0.1-0.3-0.1-0.4c-0.5-1.9-0.9-3.9-1.2-5.8c-0.5-2.6-0.9-5.2-1.2-7.9
					c-0.1-0.8-0.2-1.7-0.3-2.5c-0.1-0.9-0.2-1.8-0.2-2.6c-0.1-1.6-0.2-3.2-0.2-4.9c0-1.1,0-2.1,0-3.2l15.6,30.7l26.8,11.7l31.7,2.9
					h0l23.5,2.1h0.1l22,2c0,0,0,0,0,0l49,4.4L343.9,210.1z"/>
			</g>
			<g>
				<g>
					<path class="st22" d="M246.3,225.5l0,23.6v0l0,8.3v6.5l0,21.6v0l0,0h0l0,0l0,0l-94.4-48c0-0.1-0.1-0.3-0.1-0.4
						c-0.5-1.9-0.9-3.9-1.2-5.8c-0.5-2.6-0.9-5.2-1.2-7.9c-0.1-0.8-0.2-1.7-0.3-2.5c-0.1-0.9-0.2-1.8-0.2-2.6
						c-0.1-1.6-0.2-3.2-0.2-4.9c0-1.1,0-2.1,0-3.2v-28.7c0,0.4,0,0.8,0,1.2c0,0.3,0,0.6,0,0.9c0.2,6.7,1.3,14,3.4,21.5
						c1.7,6,3.7,11.5,6.1,16.5v0c6.3,13.1,14.7,22,22.5,23.4c0.5,0.1,1,0.1,1.5,0.2c3,0.3,6.1,0.5,9.4,0.5
						c12.2,0,23.1-9.8,29.9-13.8c0,0,0.1,0,0.1-0.1c0.4-0.2,0.7-0.4,1-0.6c0.1-0.1,0.2-0.1,0.3-0.2c5.8-3.3,14.1-5.4,23.3-5.4
						L246.3,225.5L246.3,225.5z"/>
				</g>
				<g>
					<path class="st22" d="M343.9,181.4l0,28.7c0,7.2-0.7,14.3-1.9,21.1c-0.5,2.7-1.1,5.4-1.8,8.1l-22.1,32l-71.8,14.2h0l0,0v0
						l-0.1-60h0.2c9.3,0,17.6,2.1,23.3,5.4c0.1,0,0.2,0.1,0.3,0.2c0.3,0.2,0.7,0.4,1.1,0.6c0,0,0.1,0,0.1,0.1
						c6.9,4,17.7,13.8,29.9,13.8c3.2,0,6.4-0.2,9.4-0.5c0.5,0,1-0.1,1.5-0.2c7.7-1.4,16.2-10.3,22.4-23.4v0
						c2.4-4.9,4.5-10.5,6.1-16.5c2.2-7.9,3.3-15.6,3.4-22.7C343.9,182,343.9,181.7,343.9,181.4z"/>
				</g>
			</g>
			<g>
				<ellipse class="st21" cx="246.2" cy="256.5" rx="23.9" ry="7.4"/>
			</g>
			<g>
				<path class="st22" d="M331.8,150.1c0-0.4-0.3-0.8-0.7-0.8c-3.4-0.5-18.9-2.6-35.5-2.6c-18.8,0-43.1,5.9-47.4,5.9h-3.8
					c-2,0-8.3-1.3-16.4-2.6c-9.3-1.6-20.9-3.3-31-3.3c-12.2,0-23.7,1.2-30.3,1.9c-2.4,0.3-4.2,0.6-5.2,0.7c-0.4,0-0.7,0.4-0.7,0.8
					l-0.2,10.1c0,0.4,0.2,0.7,0.5,0.8l1.2,0.4c1.7,0.6,1.6,31.2,10.7,38.8c5.4,4.5,10.2,7.1,30.5,7.1c11.7,0,19.1-3.2,26.1-12.6
					c5-6.8,9.5-22.8,9.5-22.8c1.3-6.4,5.9-7.1,7-7.2c0,0,0,0,0,0h0.1c0,0,0.1,0,0.1,0c0.2,0,5.7,0.1,7.2,7.2c0,0,4.5,16.1,9.5,22.8
					c7,9.5,14.4,12.6,26.1,12.6c20.3,0,25.1-2.6,30.5-7.1c9.1-7.6,9-38.2,10.7-38.8l1.2-0.4c0.3-0.1,0.5-0.5,0.5-0.8L331.8,150.1z
					 M229.6,186.2c-3,7.1-10.7,16.1-21.5,16.7c-32.5,1.6-34-7.4-36.1-14.6c-2.1-7.2-2.7-13.5-1.8-20.7c0.8-7.2,2.7-11.4,5.9-13.5
					c1.4-0.9,2.9-1.8,6.8-2.4c3.5-0.5,8.9-0.8,17.9-0.8c5.2,0,10.1,0.4,14.5,1.1c11.6,1.9,19.4,5.8,19.4,9.7
					C234.7,164.3,234,175.8,229.6,186.2z M320.6,188.3c-2.1,7.2-3.6,16.3-36.1,14.6c-10.8-0.6-18.5-9.6-21.5-16.7
					c-4.4-10.4-5.1-21.9-5.1-24.6c0-5.3,14.8-10.8,33.9-10.8c19,0,22.1,1.4,24.7,3.2c3.3,2.1,5.1,6.3,5.9,13.5
					C323.3,174.7,322.7,181.1,320.6,188.3z"/>
			</g>
			<g>
				<g>
					<path class="st22" d="M344.1,113.6C344.1,113.6,344.1,113.7,344.1,113.6l-195.6,0c0-69.1,46.6-66.3,97.6-60.6c0,0,0,0,0,0
						c3.6,0.4,7.3,0.8,10.9,1.2c38.2,4.2,69.3-12.3,84.9-26.9C363.1,42.5,366.9,98.2,344.1,113.6z"/>
				</g>
				<g>
					<path class="st22" d="M182.6,109.6l-0.5,1.7c-0.3,0.8-0.5,1.6-0.8,2.4c-0.2,0.6-0.5,1.3-0.7,1.9c-4.5,12-11.3,23-19.6,32.8
						c-5.9,6.9-11.7,18.1-12.3,35.1c0,1-0.1,2-0.1,3v-35c0-19.8,0-37.8,0-37.8l8-1l7.8-0.9l9.2-1.1L182.6,109.6z"/>
				</g>
				<g>
					<path class="st22" d="M344.4,113.7l-34.1-4.1l0.5,1.6c4.4,13.7,11.8,26.2,21.1,37.2c6.2,7.3,12.4,19.4,12.4,38.1
						C344.4,160.9,344.4,113.7,344.4,113.7z"/>
				</g>
				<g>
					<ellipse class="st22" cx="246.1" cy="109.6" rx="72.8" ry="13.8"/>
				</g>
			</g>
		</g>
	</g>
</g>
<g id="Layer_2">
	<g>
		<radialGradient id="SVGID_5_" cx="249.7582" cy="276.7441" r="220.8933" gradientUnits="userSpaceOnUse">
			<stop  offset="0.4011" style="stop-color:#DDF1F6"/>
			<stop  offset="0.7356" style="stop-color:#DFF2F6;stop-opacity:0.4414"/>
			<stop  offset="0.8561" style="stop-color:#E6F5F8;stop-opacity:0.2402"/>
			<stop  offset="0.9417" style="stop-color:#F1F9FB;stop-opacity:9.729928e-02"/>
			<stop  offset="1" style="stop-color:#FFFFFF;stop-opacity:0"/>
		</radialGradient>
		<circle class="st23" cx="249.8" cy="276.7" r="220.9"/>
		<g>
			<g>
				<circle id="SVGID_28_" class="st18" cx="249.8" cy="222.8" r="221.3"/>
			</g>
			<g>
				<defs>
					<circle id="SVGID_27_" cx="249.8" cy="222.8" r="221.3"/>
				</defs>
				<clipPath id="SVGID_6_">
					<use xlink:href="#SVGID_27_"  style="overflow:visible;"/>
				</clipPath>
				<g class="st24">
					<circle class="st20" cx="249.8" cy="222.8" r="221.3"/>
					<polygon class="st22" points="380.3,231.5 380.3,437.1 119.7,432.6 119.7,227 					"/>
					<path class="st21" d="M348.2,138.6v60.6c0,1.1,0,2.1,0,3.2c0,0.9,0,1.7-0.1,2.6c0,0.8-0.1,1.5-0.1,2.3c0,0.6-0.1,1.1-0.1,1.7
						c0,0.3,0,0.7-0.1,1c0,0.6-0.1,1.2-0.2,1.8c-0.1,1.2-0.2,2.3-0.4,3.5c0,0.3-0.1,0.6-0.1,0.9c-0.1,0.6-0.2,1.2-0.3,1.7v0.1
						c-0.1,0.8-0.3,1.7-0.4,2.5c-0.2,1.2-0.4,2.3-0.7,3.5c0,0,0,0.1,0,0.1c0,0.2,0,0.3-0.1,0.5c0,0,0,0.1,0,0.1
						c-0.1,0.6-0.3,1.2-0.4,1.8c0,0.3-0.1,0.5-0.2,0.8c-0.1,0.4-0.2,0.9-0.3,1.3c-0.1,0.2-0.1,0.5-0.2,0.8c0,0.2-0.1,0.4-0.2,0.6
						c-0.5,2-1.1,3.9-1.7,5.9c-0.3,0.9-0.6,1.8-0.9,2.7c0,0.1-0.1,0.2-0.1,0.3c-0.3,0.8-0.6,1.6-0.9,2.5c-0.1,0.2-0.2,0.5-0.3,0.8
						c-0.3,0.8-0.6,1.5-0.9,2.3c-0.4,0.9-0.8,1.9-1.1,2.8c-0.3,0.8-0.7,1.6-1.1,2.5c0,0.1-0.1,0.3-0.2,0.4c-0.4,0.9-0.8,1.7-1.2,2.6
						c-0.4,0.9-0.8,1.8-1.3,2.7c-0.9,1.8-1.8,3.5-2.8,5.2l-1.3,2.3c-3.7,6.4-7.9,12.4-12.4,18c-0.6,0.8-1.2,1.6-1.9,2.3
						c-0.9,1.1-1.8,2.2-2.7,3.2c-0.8,0.9-1.6,1.8-2.4,2.6c0,0,0,0.1-0.1,0.1c-2.3,2.5-4.7,4.9-7.1,7.1c-0.5,0.5-1,0.9-1.5,1.4
						c-0.8,0.8-1.6,1.5-2.5,2.2c-0.7,0.6-1.3,1.1-2,1.7c-1.7,1.4-3.5,2.8-5.2,4.1c-0.7,0.6-1.5,1.1-2.2,1.6
						c-1.2,0.9-2.4,1.7-3.7,2.5c-0.7,0.5-1.4,0.9-2.1,1.3c-2.5,1.5-5,2.9-7.4,4.1c-0.6,0.3-1.2,0.6-1.8,0.9
						c-0.6,0.3-1.2,0.6-1.9,0.9c-0.8,0.4-1.6,0.7-2.4,1c-0.3,0.1-0.6,0.3-0.9,0.4c-0.9,0.4-1.9,0.7-2.9,1.1
						c-1.2,0.4-2.4,0.8-3.6,1.1c-0.8,0.2-1.7,0.5-2.5,0.7c0,0-0.1,0-0.2,0c-0.8,0.2-1.6,0.4-2.5,0.5c-0.2,0-0.4,0.1-0.7,0.1
						c-0.7,0.1-1.4,0.2-2,0.3c-1,0.1-1.9,0.3-2.9,0.3c-0.3,0-0.7,0.1-1,0.1c-0.8,0-1.5,0.1-2.3,0.1h-0.1c-0.8,0-1.5,0-2.3-0.1
						c-0.3,0-0.6,0-0.9-0.1c-0.7,0-1.4-0.1-2.1-0.2c-0.1,0-0.3,0-0.5,0c-0.9-0.1-1.8-0.3-2.7-0.4c-0.8-0.1-1.5-0.3-2.3-0.5
						c-4.1-0.9-8.4-2.4-12.7-4.3c-3.7-1.6-7.4-3.6-11.1-5.9c-1.9-1.1-3.7-2.3-5.6-3.6c-0.9-0.7-1.8-1.3-2.8-2
						c-2.9-2.1-5.7-4.4-8.5-6.9c-0.8-0.7-1.5-1.4-2.3-2.1c-0.8-0.7-1.5-1.4-2.3-2.1c-1.8-1.7-3.5-3.5-5.2-5.3
						c-0.1-0.1-0.2-0.2-0.3-0.3c-0.7-0.8-1.4-1.5-2.1-2.3c-1.9-2.2-3.8-4.4-5.6-6.8c-0.7-0.8-1.4-1.7-2-2.6
						c-2.4-3.2-4.8-6.6-6.9-10.1c-0.6-0.9-1.2-1.9-1.7-2.9c-0.7-1.1-1.3-2.3-2-3.5c-2.4-4.4-4.6-8.9-6.6-13.5
						c-0.3-0.7-0.6-1.4-0.8-2c-0.4-0.9-0.7-1.8-1-2.6c-0.5-1.3-0.9-2.6-1.4-3.8c-0.4-1.3-0.8-2.6-1.3-3.9c-0.4-1.3-0.8-2.5-1.1-3.8
						c-0.4-1.4-0.8-2.7-1.1-4.1c0-0.1-0.1-0.3-0.1-0.4c-0.5-1.9-0.9-3.9-1.2-5.9c-0.5-2.6-0.9-5.3-1.2-8c-0.1-0.8-0.2-1.7-0.3-2.5
						c-0.1-0.9-0.2-1.8-0.2-2.7c-0.1-1.6-0.2-3.3-0.2-4.9c0-1.1,0-2.1,0-3.2v-60.6c0-52.6,41.2-95.5,93.1-98.3c0.1,0,0.2,0,0.3,0
						c0.7,0,1.4,0,2-0.1c1,0,2,0,3,0h0.1c1,0,2.1,0,3.1,0c0.8,0,1.6,0,2.4,0.1h0.1c5.5,0.3,11,1.1,16.2,2.3
						c6.4,1.5,12.6,3.5,18.4,6.2c8,3.6,15.4,8.2,22.1,13.7c5.6,4.6,10.7,9.8,15.2,15.5c13,16.5,20.8,37.3,20.9,59.9
						C348.2,138,348.2,138.3,348.2,138.6z"/>
					<path class="st21" d="M378.1,473.7L378.1,473.7l-256.6,0v0c0-14.3,2.3-28.2,6.7-41.1c0-0.1,0.1-0.2,0.1-0.4
						c0.8-2.3,1.7-4.7,2.6-7v0c0.9-2.3,1.9-4.5,3-6.8c4.2-8.9,9.5-17.3,15.6-24.9c1.5-1.9,3.1-3.8,4.7-5.6c0.8-0.9,1.6-1.8,2.5-2.7
						c0.8-0.9,1.7-1.7,2.6-2.6c4.3-4.3,9-8.3,13.9-11.9c2.4-1.8,4.9-3.5,7.5-5.2c0.3-0.2,0.7-0.4,1-0.6c0.9-0.6,1.9-1.2,2.9-1.7
						c1.3-0.8,2.6-1.5,4-2.3c0,0,0.1,0,0.1,0c1-0.6,2.1-1.2,3.1-1.8c3-1.8,5.9-3.8,8.7-6c11.7-9.3,20.7-21.8,25.9-36.1
						c1.5-4.2,2.7-8.6,3.5-13.1c0.8-4.6,1.3-9.4,1.3-14.3l18.7,0.1h0.3l18.9,0.1c0,4.8,0.4,9.5,1.2,14.1c0.8,4.5,1.9,8.9,3.4,13
						c5.1,14.4,14.1,26.9,25.8,36.2c1.7,1.4,3.5,2.7,5.4,4c0.2,0.1,0.4,0.3,0.6,0.4c0.9,0.6,1.7,1.2,2.7,1.7c1,0.6,2,1.2,3,1.8
						c0.2,0,0.3,0.1,0.4,0.2c2.1,1.2,4.2,2.4,6.3,3.7c0.2,0.1,0.3,0.2,0.5,0.3c0.8,0.5,1.7,1,2.5,1.6c2,1.3,4,2.7,5.9,4.1
						c0,0,0,0,0,0h0c2.4,1.8,4.8,3.7,7.1,5.7c2.3,2,4.5,4.1,6.7,6.2c13.9,13.8,24.6,30.8,31,49.7
						C375.7,445.5,378.1,459.3,378.1,473.7z"/>
					<path class="st25" d="M378.1,473.7H121.5c0-14.3,2.3-28.2,6.7-41.1c0-0.1,0.1-0.2,0.1-0.4c0.8-2.3,1.7-4.7,2.6-7v0
						c0.9-2.3,1.9-4.5,3-6.8c4.2-8.9,9.5-17.3,15.6-24.9c1.5-1.9,3.1-3.8,4.7-5.6c0.8-0.9,1.6-1.8,2.5-2.7c0.8-0.9,1.7-1.7,2.6-2.6
						c4.3-4.3,9-8.3,13.9-11.9c2.4-1.8,4.9-3.5,7.5-5.2c0.3-0.2,0.7-0.4,1-0.6c0.9-0.6,1.9-1.2,2.9-1.7c1.3-0.8,2.6-1.5,4-2.3
						c0,0,0.1,0,0.1,0v0c1-0.6,2.1-1.2,3.1-1.8c3-1.8,5.9-3.9,8.6-6.1c0,0,0,0,0,0c12.5,12.8,30,20.8,49.3,20.8h0.3
						c19.3,0,36.8-8,49.3-20.8l0,0c1.7,1.4,3.5,2.8,5.3,4c0.2,0.1,0.4,0.3,0.6,0.4c0.9,0.6,1.8,1.1,2.7,1.7c1,0.6,2,1.2,3,1.7
						c0.2,0,0.3,0.1,0.4,0.2c2.1,1.2,4.2,2.4,6.3,3.7c0.2,0.1,0.3,0.2,0.5,0.3c0.8,0.5,1.7,1,2.5,1.6c2,1.3,4,2.7,5.9,4.1h0
						c2.4,1.8,4.8,3.7,7.1,5.8c2.3,2,4.5,4.1,6.7,6.2c13.9,13.8,24.6,30.8,31,49.7C375.7,445.5,378.1,459.3,378.1,473.7z"/>
					<path class="st22" d="M380.8,402.8c-0.2,0.1-0.4,0.1-0.6,0.2c-12.7,3.3-62.9-57.1-63.4-120.5c0-5.1,0.2-10.2,0.9-15.4
						c1.7-13.7,8.3-26.8,13.7-40c4.3-10.5,8-21,8-31.8c0-58-16.8-39.1-63.8-70.5c-11.3-7.5-19.4-13.7-25.7-18.8
						c-17.4-13.8-21.9-18.8-45.8-18.8c-30.4,0-42.5,52.8-46,75.4c-3.7,24.3-3.8,63.7,11.4,101.2c11.7,29.1,11.8,57.6-11.4,89.2
						c-8.7,11.9-22,52-38.5,64.9c-5.1,4-10.6,5.4-16.3,2.5c-45.1-23.1-18-97.2-4.4-143.6c14.6-49.9,19-100.6,29.6-151
						c11.9-56.8,60.6-91.4,80.2-77.4c6.6-11.8,23.7-16.2,41.2-16.2c12.8,0,25.9,2.4,35.2,6c71.7,27.8,72.9,94.3,76.7,121.9
						c3.1,22.8,14.4,44.2,18.3,66.7v0.1c0.8,4.7,1.4,9.6,1.4,14.5c0.2,26.4-2.8,44.2,17.3,66.2C414.1,324.4,402.5,393.3,380.8,402.8
						z"/>
					<g>
						<path class="st22" d="M250,373.9l-0.1,0.1l0,0c-6.8,10.6-18.1,16.1-29.5,16.1c-9.3,0-18.6-3.7-25.6-11.1L181.7,365
							c2.2-1.4,4.5-2.8,6.8-4c0,0,0.1,0,0.1,0v0c1-0.6,2.1-1.2,3.1-1.8c3-1.8,5.9-3.9,8.6-6.1c0,0,0,0,0,0
							c12.5,12.8,30,20.8,49.3,20.8L250,373.9L250,373.9z"/>
						<path class="st22" d="M318.1,365.2l-12.9,13.9c-7,7.5-16.3,11.1-25.6,11.1c-11.4,0-22.7-5.5-29.5-16.1l0,0l-0.1-0.1
							c19.3,0,36.8-8,49.3-20.8l0,0c1.7,1.4,3.5,2.8,5.3,4c0.2,0.1,0.4,0.3,0.6,0.4c0.9,0.6,1.8,1.1,2.7,1.7c1,0.6,2,1.2,3,1.7
							c0.2,0,0.3,0.1,0.4,0.2c2.1,1.2,4.2,2.4,6.3,3.7C317.8,365,318,365.1,318.1,365.2z"/>
					</g>
				</g>
			</g>
		</g>
	</g>
</g>
</svg>
