<?xml version="1.0" encoding="utf-8"?>
<!-- Generator: Adobe Illustrator 23.0.6, SVG Export Plug-In . SVG Version: 6.00 Build 0)  -->
<svg version="1.1" id="Layer_1" xmlns="http://www.w3.org/2000/svg" xmlns:xlink="http://www.w3.org/1999/xlink" x="0px" y="0px"
	 viewBox="0 0 232.3 568.3" style="enable-background:new 0 0 232.3 568.3;" xml:space="preserve">
<style type="text/css">
	.st0{fill:none;stroke:#F16163;stroke-width:2;stroke-linecap:round;stroke-miterlimit:10;}
	.st1{fill:#F16163;}
	.st2{fill:none;stroke:#F16163;stroke-miterlimit:10;}
	.st3{fill:none;stroke:#F16163;stroke-width:2;stroke-miterlimit:10;}
	.st4{fill:none;stroke:#F16163;stroke-miterlimit:10;stroke-dasharray:11.8861,11.8861;}
	.st5{fill:none;stroke:#F16163;stroke-miterlimit:10;stroke-dasharray:12;}
</style>
<g>
	<polygon class="st0" points="169.8,284.7 82.2,254.5 82.2,314.9 	"/>
	<circle class="st1" cx="169.8" cy="284.7" r="3.9"/>
	<circle class="st1" cx="82.2" cy="314.9" r="3.9"/>
	<circle class="st1" cx="82.2" cy="254.5" r="3.9"/>
</g>
<circle class="st2" cx="116.4" cy="286.4" r="68.5"/>
<circle class="st3" cx="116.4" cy="286.4" r="88.9"/>
<g>
	<circle class="st4" cx="116.4" cy="286.4" r="113.5"/>
</g>
<line class="st5" x1="201" y1="209.5" x2="52.5" y2="0"/>
<line class="st5" x1="177.6" y1="568.3" x2="29.1" y2="358.8"/>
<path class="st1" d="M75.3,133.5c-0.5,0.2-1.1,0.2-1.6-0.1c-1.9-0.8-3.8-1.5-5.4-2.2l0,0c-4.8-1.9-8.9-3.6-12.1-5.5
	c-3.5-2.2-5.6-4.6-6.7-7.7c-1-3-0.9-6.2,0.3-8.9c1.2-2.7,3.4-4.7,6.3-5.7c2.1-0.7,4.3-0.7,6.5,0c1.1,0.4,2.2,0.9,3.2,1.7
	c0.4-1.2,0.9-2.3,1.5-3.2c1.3-1.9,3-3.2,5.1-4c2.8-1,5.8-0.7,8.5,0.7c2.6,1.4,4.6,3.8,5.6,6.9c1.1,3.1,0.9,6.4-0.6,10.2
	c-1.3,3.4-3.6,7.3-6.2,11.7c-0.9,1.5-1.9,3.2-3,5C76.2,133,75.8,133.4,75.3,133.5z M56.8,105.7c-2.2,0.8-4,2.3-4.9,4.5
	c-1,2.2-1,4.7-0.2,7.2c0.9,2.6,2.7,4.6,5.7,6.5c3,1.8,7,3.4,11.7,5.3l0,0c1.6,0.7,3.5,1.4,5.4,2.2c1.1-1.8,2.1-3.5,3-5.1
	c2.6-4.3,4.8-8.1,6.1-11.3c1.3-3.4,1.5-6,0.6-8.7c-0.8-2.5-2.4-4.5-4.5-5.6c-2-1.1-4.4-1.3-6.6-0.6c-1.6,0.6-3,1.6-3.9,3.1
	c-0.9,1.3-1.3,2.8-1.5,3.7c-0.1,0.5-0.5,0.9-0.9,1.1s-1,0.1-1.4-0.3c-0.8-0.6-2-1.5-3.5-2C60.1,105.1,58.4,105.1,56.8,105.7z"/>
<path class="st1" d="M185.4,450l-9-2l10.9-12c0.3-0.3,0.4-0.7,0.2-1.1c-0.1-0.4-0.4-0.7-0.8-0.8l-13.1-2.9c-0.5-0.1-1,0.1-1.2,0.5
	L161.3,450c-0.2,0.3-0.2,0.7-0.1,1c0.1,0.3,0.4,0.6,0.8,0.6l9.3,2.1l-9,12.5c-0.3,0.4-0.3,1.1,0.1,1.4c0.4,0.4,1,0.4,1.4,0.1
	l21.9-15.9C186.5,451.4,186.3,450.2,185.4,450z M168.2,462l5.9-8.3c0.5-0.7,0.1-1.6-0.7-1.7l-9.4-2.1l9.7-16.3l10.4,2.3l-10.9,12
	c-0.6,0.6-0.2,1.7,0.6,1.8l8.5,1.9L168.2,462z"/>
</svg>
