<svg xmlns="http://www.w3.org/2000/svg" xmlns:xlink="http://www.w3.org/1999/xlink" viewBox="0 0 379.36 568.89"><defs><style>.cls-1,.cls-2,.cls-4,.cls-5,.cls-6,.cls-7{fill:none;}.cls-12,.cls-2,.cls-4,.cls-5,.cls-6,.cls-7{stroke:#f16163;stroke-miterlimit:10;}.cls-2{stroke-linecap:round;}.cls-12,.cls-2,.cls-5{stroke-width:2px;}.cls-3{fill:#f16163;}.cls-6{stroke-dasharray:11.89 11.89;}.cls-7{stroke-dasharray:12;}.cls-8{fill:url(#radial-gradient);}.cls-9{fill:#fedc56;}.cls-10{clip-path:url(#clip-path);}.cls-11,.cls-12{fill:#fff;}.cls-13{fill:url(#radial-gradient-2);}.cls-14{clip-path:url(#clip-path-2);}.cls-15{fill:url(#radial-gradient-3);}.cls-16{clip-path:url(#clip-path-3);}.cls-17{fill:url(#radial-gradient-4);}.cls-18{clip-path:url(#clip-path-4);}</style><radialGradient id="radial-gradient" cx="287.45" cy="357.79" r="40.93" gradientUnits="userSpaceOnUse"><stop offset="0.4" stop-color="#ddf1f6"/><stop offset="0.63" stop-color="#ddf1f6" stop-opacity="0.99"/><stop offset="0.71" stop-color="#def1f6" stop-opacity="0.96"/><stop offset="0.76" stop-color="#e0f2f7" stop-opacity="0.92"/><stop offset="0.81" stop-color="#e2f3f7" stop-opacity="0.85"/><stop offset="0.85" stop-color="#e5f4f8" stop-opacity="0.76"/><stop offset="0.89" stop-color="#e9f6f9" stop-opacity="0.65"/><stop offset="0.92" stop-color="#edf8fa" stop-opacity="0.52"/><stop offset="0.95" stop-color="#f3fafc" stop-opacity="0.36"/><stop offset="0.97" stop-color="#f8fcfd" stop-opacity="0.2"/><stop offset="1" stop-color="#fff" stop-opacity="0.01"/><stop offset="1" stop-color="#fff" stop-opacity="0"/></radialGradient><clipPath id="clip-path" transform="translate(-80.8 0.29)"><circle id="SVGID" class="cls-1" cx="368.25" cy="347.5" r="40.43"/></clipPath><radialGradient id="radial-gradient-2" cx="118.32" cy="217.18" r="26.63" xlink:href="#radial-gradient"/><clipPath id="clip-path-2" transform="translate(-80.8 0.29)"><circle id="SVGID-2" data-name="SVGID" class="cls-1" cx="199.12" cy="211.89" r="26.63"/></clipPath><radialGradient id="radial-gradient-3" cx="41.01" cy="439.23" r="40.93" xlink:href="#radial-gradient"/><clipPath id="clip-path-3" transform="translate(-80.8 0.29)"><circle id="SVGID-3" data-name="SVGID" class="cls-1" cx="121.81" cy="428.94" r="41.01"/></clipPath><radialGradient id="radial-gradient-4" cx="354.21" cy="193.54" r="25.15" xlink:href="#radial-gradient"/><clipPath id="clip-path-4" transform="translate(-80.8 0.29)"><circle id="SVGID-4" data-name="SVGID" class="cls-1" cx="435.02" cy="185.25" r="25.15"/></clipPath></defs><title>hero</title><g id="play_button" data-name="play button"><polygon class="cls-2" points="256.2 285.01 168.61 254.79 168.61 315.23 256.2 285.01"/><circle class="cls-3" cx="256.2" cy="285.01" r="3.94"/><circle class="cls-3" cx="168.61" cy="315.23" r="3.94"/><circle class="cls-3" cx="168.61" cy="254.79" r="3.94"/></g><g id="inside_circle" data-name="inside circle"><circle class="cls-4" cx="202.81" cy="286.74" r="68.46"/></g><g id="thick_circle" data-name="thick circle"><circle class="cls-5" cx="202.81" cy="286.74" r="88.89"/></g><g id="dotted_circle" data-name="dotted circle"><circle class="cls-6" cx="202.81" cy="286.74" r="113.5"/></g><g id="top_line" data-name="top line"><line class="cls-7" x1="287.45" y1="209.75" x2="138.95" y2="0.29"/></g><g id="bottom_line" data-name="bottom line"><line class="cls-7" x1="264.06" y1="568.6" x2="115.56" y2="359.14"/></g><g id="big_colored_man" data-name="big colored man"><circle class="cls-8" cx="287.45" cy="357.79" r="40.93"/><circle id="SVGID-5" data-name="SVGID" class="cls-9" cx="287.45" cy="347.79" r="40.43"/><g class="cls-10"><circle class="cls-1" cx="286.73" cy="347.79" r="40.43"/><path class="cls-11" d="M391,393.34H344.11a23.47,23.47,0,0,1,1.25-7.57c.14-.42.3-.85.48-1.27h0c.16-.42.35-.83.54-1.24a23.54,23.54,0,0,1,2.86-4.55c.28-.35.57-.69.86-1,.15-.17.31-.33.46-.49l.47-.48a22.73,22.73,0,0,1,2.53-2.18c.45-.33.9-.64,1.37-.94l.5-.32.23-.13.7-.4h0l.57-.32a14.46,14.46,0,0,0,1.58-1.11,14.87,14.87,0,0,0,3.93-4.77,12.87,12.87,0,0,0,.8-1.82,14.86,14.86,0,0,0,.87-5l3.41,0h0l3.51,0a14.75,14.75,0,0,0,5.55,11.57,11.19,11.19,0,0,0,1,.72l.1.07.49.31.55.32.08,0,.62.36.53.32c.18.11.36.22.54.35.36.24.72.49,1.07.76h0c.45.33.88.69,1.3,1.05s.84.74,1.23,1.13A23.35,23.35,0,0,1,391,393.34Z" transform="translate(-80.8 0.29)"/><path class="cls-12" d="M391,393.34H344.11a23.47,23.47,0,0,1,1.25-7.57c.14-.42.3-.85.48-1.27h0c.16-.42.35-.83.54-1.24a23.54,23.54,0,0,1,2.86-4.55c.28-.35.57-.69.86-1,.15-.17.31-.33.46-.49l.47-.48a22.73,22.73,0,0,1,2.53-2.18c.45-.33.9-.64,1.37-.94l.5-.32.23-.13.7-.4h0l.57-.32a13.52,13.52,0,0,0,1.57-1.12h0a12.62,12.62,0,0,0,9,3.81h0a12.64,12.64,0,0,0,9-3.8h0a11.31,11.31,0,0,0,1,.73l.1.07.49.31.55.32.08,0c.21.11.42.23.62.36l.53.32c.18.11.36.22.54.35.36.24.72.49,1.07.76h0c.45.33.88.68,1.3,1.05a16.6,16.6,0,0,1,1.23,1.14A23.31,23.31,0,0,1,391,393.34Z" transform="translate(-80.8 0.29)"/><path class="cls-3" d="M379.42,373.14h0l-.48.49a15.85,15.85,0,0,1-11.4,4.79h0a15.85,15.85,0,0,1-11.41-4.8l-.46-.47h0l.7-.4h0l.57-.32a13.52,13.52,0,0,0,1.57-1.12h0a12.62,12.62,0,0,0,9,3.81h0a12.64,12.64,0,0,0,9-3.8h0a11.31,11.31,0,0,0,1,.73l.1.07.49.31.55.32.08,0C379,372.89,379.22,373,379.42,373.14Z" transform="translate(-80.8 0.29)"/><path class="cls-11" d="M385.54,334.61V345.4c0,.19,0,.39,0,.58s0,.3,0,.45,0,.3,0,.45l0,.3a1.21,1.21,0,0,1,0,.19c0,.11,0,.22,0,.33l0,.32c0,.1,0,.21,0,.31,0,.32-.1.64-.15.95s-.08.43-.13.63a0,0,0,0,1,0,0s0,.06,0,.09a0,0,0,0,0,0,0,0,0,0,0,1,0,0l0,.13,0,.16c0,.06,0,.11,0,.16l-.06.24a.74.74,0,0,1,0,.14l0,.11c-.09.37-.2.72-.31,1.07-.05.17-.1.33-.16.5l0,.06c-.05.15-.1.3-.16.45s0,.08-.05.13l-.16.43-.21.51c-.06.15-.13.3-.2.45s0,0,0,.07-.14.32-.22.47a4.44,4.44,0,0,1-.24.49c-.16.33-.33.65-.5,1l-.24.43a25.5,25.5,0,0,1-2.26,3.29l-.34.42-.5.58c-.15.17-.3.34-.46.5-.42.46-.85.89-1.3,1.3a3.2,3.2,0,0,1-.27.25l-.45.4-.37.31c-.32.26-.64.51-1,.74l-.41.29-.67.46-.38.24c-.41.25-.83.49-1.24.7l-.12.05-.33.17-.34.16-.44.18-.17.07-.52.19-.66.21-.45.12h0l-.45.09-.12,0-.37.05-.53.06-.18,0h-.85l-.16,0-.38,0h-.09l-.49-.08-.43-.09a12.42,12.42,0,0,1-2.32-.78c-.26-.12-.53-.24-.8-.39s-.82-.43-1.23-.68-.68-.43-1-.66l-.51-.37c-.52-.38-1.05-.8-1.56-1.25l-.42-.39-.42-.39c-.35-.33-.68-.68-1-1-.13-.14-.26-.28-.38-.43-.36-.4-.7-.81-1-1.24-.13-.15-.25-.31-.37-.47-.44-.59-.87-1.21-1.26-1.85l-.32-.52-.36-.63a23.63,23.63,0,0,1-1.2-2.48c-.05-.12-.11-.25-.15-.37s-.13-.32-.19-.48-.17-.47-.25-.7-.16-.48-.23-.71-.14-.46-.2-.7-.14-.5-.2-.75a.19.19,0,0,0,0-.08c-.08-.36-.15-.71-.22-1.08s-.16-1-.21-1.45c0-.16,0-.31-.05-.46s0-.33,0-.49,0-.6-.05-.9V334.61a18,18,0,0,1,1.4-7c0-.06.05-.11.07-.17a17.77,17.77,0,0,1,1.22-2.33l.22-.35a18,18,0,0,1,15.06-8.17h0a18.14,18.14,0,0,1,4,.45,17.44,17.44,0,0,1,3.36,1.12,18.19,18.19,0,0,1,4,2.5,18.54,18.54,0,0,1,2.77,2.83,14.33,14.33,0,0,1,.9,1.26c.08.12.16.24.23.36a17.65,17.65,0,0,1,1.22,2.32l.08.19a17.69,17.69,0,0,1,1.39,6.8A.92.92,0,0,1,385.54,334.61Z" transform="translate(-80.8 0.29)"/><path class="cls-3" d="M385.54,345.4c0,.19,0,.39,0,.58s0,.3,0,.45,0,.3,0,.45l0,.3a1.21,1.21,0,0,1,0,.19c0,.11,0,.22,0,.33l0,.32c0,.1,0,.21,0,.31,0,.32-.1.64-.15.95s-.07.37-.11.55l0,.11s0,.06,0,.09a0,0,0,0,0,0,0,0,0,0,0,1,0,0h0l0,.14,0,.14c0,.06,0,.11,0,.16a2,2,0,0,1-.07.26.27.27,0,0,1,0,.12l0,.11c-.09.37-.2.72-.31,1.07-.05.17-.1.33-.16.5a.08.08,0,0,1,0,0c-.05.16-.1.31-.16.46a1.12,1.12,0,0,1-.05.13l-.16.43-.21.51c-.06.15-.13.3-.2.45s0,0,0,.07-.14.32-.22.47a4.44,4.44,0,0,1-.24.49c-.15.33-.33.65-.5,1l-.24.43a24.72,24.72,0,0,1-2.26,3.28c-.11.15-.22.29-.34.43s-.33.39-.5.58-.3.34-.46.5c-.42.46-.85.89-1.29,1.3l-.28.25-.45.4-.37.31c-.32.26-.64.51-1,.74l-.41.29-.67.46-.38.24c-.41.25-.83.49-1.24.7l-.11.05-.34.17-.34.16-.44.18-.17.07-.52.19-.66.21-.45.12h0l-.45.09-.12,0-.37.05-.53.06H368l-.42,0h0l-.41,0H367l-.38,0h-.09l-.49-.08-.43-.09a12.67,12.67,0,0,1-2.32-.78l-.8-.39c-.41-.2-.82-.43-1.23-.68s-.67-.43-1-.66l-.51-.37c-.52-.38-1.05-.8-1.56-1.25l-.42-.39-.42-.39c-.35-.33-.68-.68-1-1-.13-.14-.26-.28-.38-.43-.36-.4-.7-.81-1-1.24-.13-.15-.25-.31-.37-.47-.44-.59-.87-1.21-1.26-1.85l-.32-.52-.36-.63a23.63,23.63,0,0,1-1.2-2.48c-.05-.12-.11-.25-.15-.37s-.13-.32-.19-.48-.17-.47-.25-.7-.16-.48-.23-.71-.14-.46-.2-.7-.14-.5-.2-.75c0,0,0-.06,0-.08-.09-.36-.16-.71-.23-1.08s-.16-1-.21-1.45c0-.16,0-.31-.05-.47s0-.32,0-.48,0-.6,0-.9,0-.39,0-.58l2.87,5.65,4.93,2.15,5.84.52h0l4.32.4h0l4.05.36h0l9,.82Z" transform="translate(-80.8 0.29)"/><path class="cls-3" d="M367.57,348.24v4.35h0v6.7h0l-17.38-8.84s0-.06,0-.08c-.09-.36-.16-.71-.23-1.08s-.16-1-.21-1.45c0-.15,0-.31-.05-.46s0-.33,0-.49,0-.6,0-.9,0-.39,0-.58v-5.06c0,.06,0,.11,0,.16a17.63,17.63,0,0,0,.62,4,18.32,18.32,0,0,0,1.13,3h0c1.16,2.41,2.71,4.05,4.14,4.31l.27,0a15.91,15.91,0,0,0,1.72.1c2.26,0,4.26-1.81,5.52-2.55h0l.19-.12.06,0a8.83,8.83,0,0,1,4.29-1Z" transform="translate(-80.8 0.29)"/><path class="cls-3" d="M385.54,340.12v5.28a21.62,21.62,0,0,1-.35,3.88c-.1.51-.2,1-.33,1.5l-4.07,5.89-13.23,2.62h0l0-11.06h0a9,9,0,0,1,4.3,1l.05,0,.19.12h0c1.27.73,3.26,2.55,5.52,2.55a16.25,16.25,0,0,0,1.73-.1l.27,0c1.42-.27,3-1.9,4.13-4.31h0a18.66,18.66,0,0,0,1.13-3,17.45,17.45,0,0,0,.63-4.18Z" transform="translate(-80.8 0.29)"/><ellipse class="cls-11" cx="286.74" cy="354.24" rx="4.41" ry="1.36"/><path class="cls-3" d="M383.31,334.35a.15.15,0,0,0-.13-.15,47.14,47.14,0,0,0-6.54-.49c-3.46,0-7.94,1.09-8.72,1.09h-.7c-.36,0-1.53-.24-3-.49a36.31,36.31,0,0,0-5.7-.6,47.91,47.91,0,0,0-5.59.36c-.45.05-.78.1-1,.13a.15.15,0,0,0-.13.15l0,1.86a.16.16,0,0,0,.09.15l.22.07c.31.12.28,5.74,2,7.15,1,.83,1.88,1.3,5.62,1.3a5.24,5.24,0,0,0,4.81-2.33,17.65,17.65,0,0,0,1.75-4.2,1.47,1.47,0,0,1,1.28-1.33h0a1.46,1.46,0,0,1,1.32,1.33,17.65,17.65,0,0,0,1.75,4.2,5.25,5.25,0,0,0,4.82,2.33c3.73,0,4.62-.47,5.61-1.3,1.68-1.41,1.65-7,2-7.15l.22-.07a.16.16,0,0,0,.09-.15ZM364.5,341a4.92,4.92,0,0,1-4,3.07c-6,.3-6.26-1.37-6.65-2.69a9,9,0,0,1-.33-3.81,3.17,3.17,0,0,1,1.09-2.49,2.69,2.69,0,0,1,1.26-.44,25.24,25.24,0,0,1,3.29-.15,16.87,16.87,0,0,1,2.67.2c2.13.35,3.57,1.07,3.57,1.78A13.29,13.29,0,0,1,364.5,341Zm16.76.38c-.39,1.32-.67,3-6.65,2.69a4.9,4.9,0,0,1-4-3.07,13.29,13.29,0,0,1-.93-4.53c0-1,2.73-2,6.24-2s4.06.26,4.55.59a3.17,3.17,0,0,1,1.09,2.49A9,9,0,0,1,381.26,341.38Z" transform="translate(-80.8 0.29)"/><path class="cls-3" d="M385.58,327.64h-36c0-12.72,8.57-12.2,18-11.16h0l2,.23a20.15,20.15,0,0,0,15.63-4.95C389.08,314.54,389.78,324.8,385.58,327.64Z" transform="translate(-80.8 0.29)"/><path class="cls-3" d="M355.83,326.89l-.1.31a3.26,3.26,0,0,1-.15.44c0,.12-.08.24-.13.36a20.63,20.63,0,0,1-3.61,6,10.28,10.28,0,0,0-2.27,6.46c0,.18,0,.37,0,.56V327.64l1.47-.17,1.44-.17,1.7-.21Z" transform="translate(-80.8 0.29)"/><path class="cls-3" d="M385.63,327.65l-6.27-.75.09.3a20.31,20.31,0,0,0,3.89,6.84,10.49,10.49,0,0,1,2.29,7Z" transform="translate(-80.8 0.29)"/><ellipse class="cls-3" cx="286.73" cy="327.19" rx="13.41" ry="2.54"/></g></g><g id="small_colored_man" data-name="small colored man"><circle class="cls-13" cx="118.32" cy="217.18" r="26.63"/><circle id="SVGID-6" data-name="SVGID" class="cls-9" cx="118.32" cy="212.18" r="26.63"/><g class="cls-14"><circle class="cls-1" cx="117.85" cy="212.18" r="26.63"/><path class="cls-11" d="M214.1,242.09H183.22a15.58,15.58,0,0,1,.82-5c.1-.28.2-.56.32-.83h0q.16-.4.36-.81a15,15,0,0,1,1.88-3c.18-.23.37-.45.57-.67l.3-.33.31-.31a15.27,15.27,0,0,1,1.67-1.44c.29-.22.59-.42.89-.62l.34-.21.15-.08c.15-.09.3-.18.46-.26h0l.37-.22a9.18,9.18,0,0,0,1-.72,9.71,9.71,0,0,0,2.59-3.14,10.07,10.07,0,0,0,.53-1.21,9.72,9.72,0,0,0,.57-3.29H201a9.79,9.79,0,0,0,.56,3.26,9.24,9.24,0,0,0,.52,1.2,9.65,9.65,0,0,0,2.58,3.16c.21.17.43.33.65.48l.07,0,.32.21.36.21s0,0,0,0l.41.23.35.21.35.23c.25.16.48.33.71.5h0c.29.22.58.46.86.69s.54.49.8.75A15.37,15.37,0,0,1,214.1,242.09Z" transform="translate(-80.8 0.29)"/><path class="cls-12" d="M214.1,242.09H183.22a15.58,15.58,0,0,1,.82-5c.1-.28.2-.56.32-.83h0q.16-.4.36-.81a15,15,0,0,1,1.88-3c.18-.23.37-.45.57-.67l.3-.33.31-.31a15.27,15.27,0,0,1,1.67-1.44c.29-.22.59-.42.89-.62l.34-.21.15-.09.46-.26h0l.37-.22a9.26,9.26,0,0,0,1-.73h0a8.29,8.29,0,0,0,5.94,2.5h0a8.31,8.31,0,0,0,6-2.5h0a7.62,7.62,0,0,0,.64.48l.07,0,.32.21.36.21,0,0,.41.24.35.21.35.23c.25.16.48.33.71.5h0c.29.22.58.45.86.69s.54.49.8.75A15.37,15.37,0,0,1,214.1,242.09Z" transform="translate(-80.8 0.29)"/><path class="cls-3" d="M206.48,228.78h0l-.32.32a10.4,10.4,0,0,1-7.5,3.16h0a10.48,10.48,0,0,1-7.52-3.16l-.3-.31h0l.46-.26h0l.37-.22a9.26,9.26,0,0,0,1-.73h0a8.29,8.29,0,0,0,5.94,2.5h0a8.31,8.31,0,0,0,6-2.5h0a7.62,7.62,0,0,0,.64.48l.07,0,.32.21.36.21,0,0Z" transform="translate(-80.8 0.29)"/><path class="cls-11" d="M210.51,203.4v7.49c0,.1,0,.2,0,.3a2.81,2.81,0,0,1,0,.29c0,.07,0,.14,0,.2a.49.49,0,0,1,0,.12,1.64,1.64,0,0,1,0,.22,1.52,1.52,0,0,1,0,.21,1.49,1.49,0,0,1,0,.21c0,.21-.06.42-.1.62s-.05.28-.08.42v0a.13.13,0,0,1,0,.06v0a.31.31,0,0,1,0,.08.43.43,0,0,1,0,.11l0,.1,0,.16,0,.09s0,.05,0,.08c-.06.24-.13.47-.2.7l-.11.33s0,0,0,0l-.11.29,0,.09c0,.1-.07.19-.11.28a3.45,3.45,0,0,1-.14.34,2.55,2.55,0,0,1-.13.29.08.08,0,0,1,0,0L209,217l-.16.32c-.1.21-.22.42-.33.63l-.16.28a16.64,16.64,0,0,1-1.49,2.17c-.07.09-.14.19-.22.28l-.33.38-.3.33c-.28.3-.57.58-.86.85l-.18.17-.3.26-.24.2-.63.5-.27.19-.44.3-.25.15a8.45,8.45,0,0,1-.82.46l-.08,0-.21.11-.23.1-.29.13-.11,0-.35.13-.43.13-.3.08h0c-.1,0-.19.05-.29.06l-.08,0-.25,0c-.11,0-.23,0-.35,0h-.78l-.25,0H198l-.33-.05a1.4,1.4,0,0,1-.28-.06,8.08,8.08,0,0,1-1.53-.51l-.53-.25c-.27-.14-.54-.29-.81-.46s-.45-.28-.67-.43l-.33-.24c-.34-.25-.69-.53-1-.83l-.28-.25-.27-.26c-.23-.22-.45-.45-.67-.68L191,221c-.23-.26-.46-.53-.67-.82a3.76,3.76,0,0,1-.25-.31c-.29-.39-.57-.8-.83-1.22l-.21-.34-.24-.42a15.32,15.32,0,0,1-.79-1.63l-.1-.24c0-.11-.09-.21-.12-.32s-.12-.31-.17-.46l-.15-.47c-.05-.15-.09-.3-.13-.46s-.09-.33-.13-.5a.43.43,0,0,1,0,0c-.06-.23-.11-.47-.15-.7s-.1-.64-.14-1l0-.31,0-.32,0-.59V203.4a11.86,11.86,0,0,1,.92-4.59.61.61,0,0,1,.05-.12,12.35,12.35,0,0,1,.8-1.53l.15-.23a11.82,11.82,0,0,1,9.92-5.38h0a12,12,0,0,1,2.63.29,12.47,12.47,0,0,1,2.21.74,12.07,12.07,0,0,1,4.49,3.51c.21.27.4.55.59.83,0,.08.11.16.15.24a11.19,11.19,0,0,1,.81,1.53l.05.12a11.77,11.77,0,0,1,.92,4.49Z" transform="translate(-80.8 0.29)"/><path class="cls-3" d="M210.51,210.51v.38c0,.1,0,.2,0,.3a2.81,2.81,0,0,1,0,.29c0,.07,0,.14,0,.2a.49.49,0,0,1,0,.12,1.64,1.64,0,0,1,0,.22l0,.21a1.49,1.49,0,0,1,0,.21c0,.21-.06.42-.1.62s-.05.25-.07.37,0,0,0,.07a.13.13,0,0,1,0,.06v0h0a.29.29,0,0,1,0,.09.3.3,0,0,1,0,.1l0,.1c0,.06,0,.12,0,.17s0,.06,0,.08,0,.05,0,.08c-.06.24-.13.47-.2.7l-.11.33s0,0,0,0l-.11.29,0,.09c0,.1-.07.19-.11.28a3.45,3.45,0,0,1-.14.34,2.55,2.55,0,0,1-.13.29.08.08,0,0,1,0,0L209,217l-.16.32c-.1.21-.22.42-.33.63l-.16.28a17.62,17.62,0,0,1-1.48,2.17l-.23.28-.33.38-.3.33c-.28.3-.57.58-.86.85l-.18.17-.3.26-.24.2c-.21.17-.42.34-.63.49l-.27.2-.44.3-.25.15a8.45,8.45,0,0,1-.82.46l-.07,0-.22.11-.23.1-.29.13-.11,0-.35.13-.43.13-.3.08h0c-.1,0-.19.05-.29.06l-.08,0-.25,0c-.11,0-.23,0-.35,0h-.78l-.25,0H198l-.33-.05a1.4,1.4,0,0,1-.28-.06,8.08,8.08,0,0,1-1.53-.51l-.53-.25c-.27-.14-.54-.29-.81-.46s-.44-.28-.67-.43l-.33-.24c-.34-.25-.69-.53-1-.83l-.28-.25-.27-.26c-.23-.22-.45-.45-.67-.68s-.16-.19-.25-.28c-.23-.26-.46-.53-.67-.82a3.76,3.76,0,0,1-.25-.31c-.29-.39-.57-.8-.83-1.22l-.21-.34-.24-.42a15.32,15.32,0,0,1-.79-1.63l-.1-.24-.12-.32c-.06-.15-.12-.31-.17-.46l-.15-.47c-.05-.15-.09-.3-.13-.46s-.09-.33-.13-.5a.43.43,0,0,1,0,0c-.06-.23-.11-.47-.15-.71s-.1-.63-.14-.95l0-.31,0-.32,0-.59v-.38l1.89,3.72,3.25,1.41,3.85.35h0l2.85.26h0l2.66.24h0l5.94.54Z" transform="translate(-80.8 0.29)"/><path class="cls-3" d="M198.67,212.38v2.86h0v4.41h0l-11.45-5.82s0,0,0-.06c-.06-.23-.11-.47-.15-.7s-.1-.64-.14-1l0-.31,0-.32,0-.59v-3.71a.34.34,0,0,0,0,.1,11.55,11.55,0,0,0,.41,2.61,11.72,11.72,0,0,0,.74,2h0c.76,1.59,1.78,2.67,2.72,2.84l.18,0a10.6,10.6,0,0,0,1.14.06c1.48,0,2.8-1.19,3.63-1.67h0l.13-.08,0,0a5.86,5.86,0,0,1,2.83-.65Z" transform="translate(-80.8 0.29)"/><path class="cls-3" d="M210.52,207v3.48a14.31,14.31,0,0,1-.23,2.55c-.06.34-.13.66-.21,1l-2.69,3.88-8.71,1.73h0v-7.29h0a6,6,0,0,1,2.84.66l0,0,.13.08h0c.83.48,2.15,1.67,3.63,1.67a10.33,10.33,0,0,0,1.14-.06l.18,0c.94-.18,2-1.25,2.72-2.84h0a12.62,12.62,0,0,0,.75-2,11.68,11.68,0,0,0,.41-2.75A.45.45,0,0,0,210.52,207Z" transform="translate(-80.8 0.29)"/><ellipse class="cls-11" cx="117.86" cy="216.43" rx="2.9" ry="0.9"/><path class="cls-3" d="M209,203.23a.09.09,0,0,0-.08-.1,30.59,30.59,0,0,0-4.31-.32,49.27,49.27,0,0,0-5.75.71h-.45c-.24,0-1-.15-2-.32a24.18,24.18,0,0,0-3.76-.39A33.65,33.65,0,0,0,189,203l-.63.09a.09.09,0,0,0-.08.1l0,1.22a.1.1,0,0,0,.07.1l.14,0c.2.08.19,3.78,1.29,4.71.66.54,1.24.85,3.7.85a3.46,3.46,0,0,0,3.17-1.53,11.53,11.53,0,0,0,1.16-2.77,1,1,0,0,1,.84-.87h0a1,1,0,0,1,.87.87,11.53,11.53,0,0,0,1.16,2.77,3.46,3.46,0,0,0,3.17,1.53c2.46,0,3-.31,3.7-.85,1.1-.93,1.08-4.63,1.29-4.71l.14,0a.1.1,0,0,0,.07-.1Zm-12.39,4.38a3.23,3.23,0,0,1-2.61,2c-3.95.2-4.13-.9-4.38-1.77a5.82,5.82,0,0,1-.22-2.51c.1-.87.32-1.39.72-1.64a1.62,1.62,0,0,1,.83-.29,16.43,16.43,0,0,1,2.17-.1,11.77,11.77,0,0,1,1.75.13c1.41.23,2.35.71,2.35,1.18A8.84,8.84,0,0,1,196.65,207.61Zm11,.25c-.26.87-.44,2-4.38,1.77a3.21,3.21,0,0,1-2.61-2,8.94,8.94,0,0,1-.62-3c0-.65,1.8-1.31,4.11-1.31s2.68.17,3,.39.62.77.72,1.64A6,6,0,0,1,207.69,207.86Z" transform="translate(-80.8 0.29)"/><path class="cls-3" d="M210.54,198.81H186.81c0-8.38,5.65-8,11.84-7.35h0l1.32.15a13.32,13.32,0,0,0,10.3-3.26C212.85,190.18,213.3,196.94,210.54,198.81Z" transform="translate(-80.8 0.29)"/><path class="cls-3" d="M190.94,198.32l-.06.2c0,.1-.07.19-.1.29l-.09.23a13.5,13.5,0,0,1-2.38,4,6.74,6.74,0,0,0-1.49,4.25c0,.12,0,.24,0,.37v-8.84l1-.12.95-.11,1.12-.13Z" transform="translate(-80.8 0.29)"/><path class="cls-3" d="M210.57,198.81l-4.13-.49.06.2a13.51,13.51,0,0,0,2.57,4.51,6.94,6.94,0,0,1,1.5,4.62Z" transform="translate(-80.8 0.29)"/><ellipse class="cls-3" cx="117.85" cy="198.61" rx="8.83" ry="1.67"/></g></g><g id="big_colored_woman" data-name="big colored woman"><circle class="cls-15" cx="41.01" cy="439.23" r="40.93"/><circle id="SVGID-7" data-name="SVGID" class="cls-9" cx="41.01" cy="429.23" r="41.01"/><g class="cls-16"><circle class="cls-1" cx="41.01" cy="429.23" r="41.01"/><polygon class="cls-3" points="65.19 430.83 65.19 468.94 16.91 468.11 16.91 430.01 65.19 430.83"/><path class="cls-11" d="M140.06,413.33v11.24c0,.2,0,.39,0,.59s0,.32,0,.48a3.11,3.11,0,0,1,0,.43c0,.1,0,.21,0,.31a1.1,1.1,0,0,1,0,.18,2,2,0,0,1,0,.34c0,.22-.05.43-.08.64a1,1,0,0,1,0,.17c0,.1,0,.21-.05.32h0c0,.16-.05.31-.08.47s-.08.43-.13.64v0s0,.07,0,.1a0,0,0,0,0,0,0c0,.11,0,.22-.08.34l0,.14-.06.25a1,1,0,0,1,0,.14l0,.11c-.09.37-.2.73-.31,1.09l-.17.5a.14.14,0,0,1,0,.06c-.05.15-.1.3-.16.45l0,.14c-.06.15-.11.29-.17.43s-.14.35-.21.52-.13.3-.2.46a.21.21,0,0,1,0,.07c-.07.16-.14.32-.22.48l-.24.5c-.16.33-.34.65-.51,1l-.25.43a25.56,25.56,0,0,1-2.29,3.34c-.11.14-.22.29-.35.43s-.33.39-.5.59-.29.32-.45.48v0c-.43.47-.87.9-1.32,1.32l-.28.25c-.15.14-.3.28-.46.41l-.37.31c-.33.26-.65.52-1,.76l-.41.29c-.22.16-.45.32-.68.46s-.25.17-.38.25a15.75,15.75,0,0,1-1.38.76l-.34.17-.35.16-.44.19-.17.07-.53.19c-.22.08-.45.15-.67.21a3.9,3.9,0,0,1-.46.12h0a3.41,3.41,0,0,1-.46.1l-.12,0a2.38,2.38,0,0,1-.37.06l-.54.06-.19,0h-.85l-.16,0-.39,0h-.09l-.5-.08-.43-.09a12.89,12.89,0,0,1-2.36-.8,16.87,16.87,0,0,1-2-1.08c-.35-.21-.69-.44-1-.67l-.52-.37c-.53-.39-1.06-.82-1.58-1.27l-.43-.4-.42-.39c-.34-.32-.66-.65-1-1l-.06-.06-.39-.43c-.35-.4-.7-.82-1-1.26-.13-.15-.25-.31-.37-.48-.45-.6-.88-1.22-1.28-1.87l-.32-.53c-.13-.21-.25-.43-.37-.64a25.27,25.27,0,0,1-1.22-2.51c-.05-.13-.11-.25-.15-.38a4.94,4.94,0,0,1-.19-.49c-.09-.24-.18-.47-.26-.71s-.16-.48-.23-.72-.14-.47-.2-.71-.14-.5-.2-.76c0,0,0-.06,0-.08-.08-.36-.16-.72-.23-1.09s-.16-1-.21-1.48c0-.15,0-.31,0-.47s0-.32,0-.49,0-.6-.05-.91,0-.39,0-.59V413.33a18.24,18.24,0,0,1,17.25-18.21h1.58l.44,0h0a17.48,17.48,0,0,1,3,.42,18.25,18.25,0,0,1,10.32,6.54,18.13,18.13,0,0,1,3.88,11.09A.92.92,0,0,1,140.06,413.33Z" transform="translate(-80.8 0.29)"/><path class="cls-11" d="M145.58,475.43H98a23.6,23.6,0,0,1,1.24-7.6l0-.07c.14-.44.31-.87.48-1.29h0c.17-.42.36-.84.56-1.25a23.43,23.43,0,0,1,2.89-4.62c.29-.35.58-.7.88-1,.15-.17.3-.34.46-.5l.48-.48a23.41,23.41,0,0,1,2.56-2.22c.46-.33.91-.65,1.39-.95l.19-.12.53-.32c.24-.15.49-.28.73-.42h0l.57-.33a15.07,15.07,0,0,0,6.4-7.81,15.14,15.14,0,0,0,.65-2.42,15.45,15.45,0,0,0,.23-2.65h3.52l3.51,0a15,15,0,0,0,.22,2.61,15.78,15.78,0,0,0,.63,2.41,15.06,15.06,0,0,0,4.78,6.71,10.33,10.33,0,0,0,1,.74l.1.07c.16.11.32.22.49.32l.56.32.08,0q.6.33,1.17.69l.09.06c.15.09.31.19.46.3.37.23.73.5,1.08.76h0c.46.33.9.69,1.33,1.06s.84.75,1.24,1.15a23.66,23.66,0,0,1,7,16.82Z" transform="translate(-80.8 0.29)"/><path class="cls-12" d="M145.58,475.43H98a23.6,23.6,0,0,1,1.24-7.6l0-.07c.14-.44.31-.87.48-1.29h0c.17-.42.36-.84.56-1.25a23.43,23.43,0,0,1,2.89-4.62c.29-.35.58-.7.88-1,.15-.17.3-.34.46-.5l.48-.48a23.41,23.41,0,0,1,2.56-2.22c.46-.33.91-.65,1.39-.95l.19-.12.53-.32c.24-.15.49-.29.73-.42h0l.57-.33a14,14,0,0,0,1.6-1.13h0A12.79,12.79,0,0,0,121.8,457h0a12.77,12.77,0,0,0,9.14-3.86h0c.32.26.65.51,1,.74l.1.07.49.31.56.33.08,0q.6.33,1.17.69l.09.06c.15.09.31.19.46.3.37.23.73.49,1.09.76h0c.46.34.9.7,1.33,1.07s.84.75,1.24,1.15a23.66,23.66,0,0,1,7,16.82Z" transform="translate(-80.8 0.29)"/><path class="cls-3" d="M146.1,462.29l-.1,0c-2.36.61-11.66-10.59-11.75-22.33a21,21,0,0,1,.17-2.85c.31-2.53,1.53-5,2.54-7.42a15.65,15.65,0,0,0,1.48-5.89c0-10.76-3.12-7.25-11.82-13.06-2.1-1.39-3.6-2.54-4.77-3.47-3.23-2.57-4-3.49-8.48-3.49-5.64,0-7.88,9.8-8.52,14A37.21,37.21,0,0,0,107,436.55c2.18,5.38,2.18,10.66-2.11,16.53-1.61,2.2-4.07,9.64-7.13,12a2.67,2.67,0,0,1-3,.47c-8.36-4.28-3.33-18-.82-26.62,2.7-9.25,3.52-18.63,5.48-28,2.22-10.52,11.22-16.93,14.86-14.33,1.22-2.18,4.39-3,7.64-3a19,19,0,0,1,6.53,1.12c13.29,5.15,13.51,17.47,14.22,22.59.58,4.23,2.67,8.19,3.4,12.36v0a15.81,15.81,0,0,1,.25,2.68c0,4.89-.51,8.19,3.2,12.27C152.27,447.77,150.11,460.53,146.1,462.29Z" transform="translate(-80.8 0.29)"/><path class="cls-3" d="M121.85,457v0h0a6.5,6.5,0,0,1-10.21.92l-2.43-2.61c.41-.26.83-.51,1.26-.74h0l.57-.33a14,14,0,0,0,1.6-1.13h0A12.79,12.79,0,0,0,121.8,457Z" transform="translate(-80.8 0.29)"/><path class="cls-3" d="M134.48,455.33l-2.4,2.57a6.49,6.49,0,0,1-10.2-.92h0l0,0a12.81,12.81,0,0,0,9.14-3.86h0a12.14,12.14,0,0,0,1,.74l.1.07.49.31.56.33.08,0c.4.22.79.44,1.17.69Z" transform="translate(-80.8 0.29)"/></g></g><g id="small_colored_woman" data-name="small colored woman"><circle class="cls-17" cx="354.21" cy="193.54" r="25.15"/><circle id="SVGID-8" data-name="SVGID" class="cls-9" cx="354.21" cy="185.54" r="25.15"/><g class="cls-18"><circle class="cls-1" cx="354.21" cy="185.54" r="25.15"/><polygon class="cls-3" points="369.05 186.53 369.05 209.9 339.44 209.39 339.44 186.03 369.05 186.53"/><path class="cls-11" d="M446.21,175.69v6.89c0,.12,0,.24,0,.36a2.81,2.81,0,0,1,0,.29c0,.09,0,.18,0,.27s0,.12,0,.19a.45.45,0,0,1,0,.11,1.49,1.49,0,0,1,0,.21c0,.13,0,.26-.05.39s0,.07,0,.1l0,.2h0c0,.09,0,.19-.05.28s-.05.27-.08.39v0a.13.13,0,0,0,0,.06v0a1.17,1.17,0,0,1-.05.2.29.29,0,0,1,0,.09l0,.15,0,.09a.19.19,0,0,1,0,.07c-.05.23-.12.45-.19.67s-.06.2-.1.31v0l-.1.28,0,.08c0,.09-.07.18-.1.27l-.13.31-.12.28s0,0,0,.05l-.14.3-.15.3-.31.6-.15.26a15.49,15.49,0,0,1-1.41,2.05c-.06.09-.14.17-.21.26l-.31.36-.27.3a0,0,0,0,0,0,0q-.41.44-.81.81l-.17.15-.29.25-.22.19c-.2.17-.4.32-.6.47l-.25.18-.42.28-.24.15a7.08,7.08,0,0,1-.84.47l-.21.1-.21.1-.27.12-.11,0-.33.12-.4.13-.29.07h0l-.28.06H436l-.23,0-.33,0h-.74l-.24,0h-.05l-.31-.05-.26-.06a7.6,7.6,0,0,1-1.44-.48,11.11,11.11,0,0,1-1.27-.67c-.21-.13-.42-.26-.63-.41l-.31-.23a11.42,11.42,0,0,1-1-.78l-.27-.24-.26-.24c-.2-.19-.4-.4-.59-.61l0,0-.24-.27a9.68,9.68,0,0,1-.64-.77c-.08-.09-.15-.19-.23-.29-.28-.37-.54-.75-.79-1.15l-.19-.33-.23-.39A15.67,15.67,0,0,1,425,188l-.09-.23-.12-.3-.15-.44-.15-.44-.12-.43c0-.15-.09-.31-.12-.47s0,0,0-.05c-.05-.22-.1-.44-.14-.67a8.86,8.86,0,0,1-.13-.9,1.43,1.43,0,0,1,0-.29c0-.1,0-.2,0-.3l0-.56v-7.25a11.19,11.19,0,0,1,10.57-11.18h1.25a12.49,12.49,0,0,1,1.85.26,11.16,11.16,0,0,1,2.09.7A11.31,11.31,0,0,1,442.1,167a11.51,11.51,0,0,1,1.73,1.76,11.16,11.16,0,0,1,2.38,6.81Z" transform="translate(-80.8 0.29)"/><path class="cls-11" d="M449.6,213.77H420.44a14.36,14.36,0,0,1,.76-4.66l0-.05c.09-.26.19-.53.29-.79h0c.11-.26.22-.52.34-.77a14.34,14.34,0,0,1,1.78-2.83,8.14,8.14,0,0,1,.54-.63,4.12,4.12,0,0,1,.28-.31l.29-.3a14.69,14.69,0,0,1,1.58-1.36l.85-.58.11-.07.33-.2.45-.26h0l.35-.2a9.59,9.59,0,0,0,1-.69,9.06,9.06,0,0,0,3.34-5.59,9.69,9.69,0,0,0,.14-1.63H435l2.15,0a9.31,9.31,0,0,0,.14,1.59,8.93,8.93,0,0,0,.39,1.48,9.17,9.17,0,0,0,2.93,4.12c.2.16.4.31.61.45l.06,0,.3.19.35.2,0,0,.71.42.06,0,.28.18c.23.15.45.31.67.47h0a10,10,0,0,1,.81.65,8.51,8.51,0,0,1,.76.71,14.57,14.57,0,0,1,4.29,10.31Z" transform="translate(-80.8 0.29)"/><path class="cls-12" d="M449.6,213.77H420.44a14.36,14.36,0,0,1,.76-4.66l0-.05c.09-.26.19-.53.29-.79h0c.11-.26.22-.52.34-.77a14.34,14.34,0,0,1,1.78-2.83,8.14,8.14,0,0,1,.54-.63,4.12,4.12,0,0,1,.28-.31l.29-.3a14.69,14.69,0,0,1,1.58-1.36l.85-.58.11-.07.33-.2.45-.26h0l.35-.21a7.23,7.23,0,0,0,1-.69h0a7.86,7.86,0,0,0,5.61,2.36h0a7.86,7.86,0,0,0,5.61-2.36h0c.2.16.4.31.61.45l.06,0,.31.19.34.2,0,0c.24.13.48.27.71.42l.06,0,.28.18c.23.15.45.31.67.47h0q.42.32.81.66a10.16,10.16,0,0,1,.76.7,14.61,14.61,0,0,1,4.29,10.32Z" transform="translate(-80.8 0.29)"/><path class="cls-3" d="M449.91,205.71l-.06,0c-1.44.37-7.15-6.5-7.2-13.7a11.29,11.29,0,0,1,.1-1.74,18.17,18.17,0,0,1,1.56-4.55,9.65,9.65,0,0,0,.9-3.62c0-6.59-1.91-4.45-7.24-8-1.29-.86-2.21-1.57-2.93-2.14-2-1.57-2.48-2.13-5.2-2.13-3.46,0-4.83,6-5.22,8.57a22.76,22.76,0,0,0,1.29,11.5,9.63,9.63,0,0,1-1.29,10.14c-1,1.35-2.5,5.91-4.38,7.38a1.62,1.62,0,0,1-1.85.29c-5.13-2.63-2.05-11-.51-16.33,1.66-5.67,2.16-11.43,3.36-17.16,1.36-6.45,6.89-10.38,9.12-8.79.74-1.33,2.69-1.83,4.68-1.83a11.75,11.75,0,0,1,4,.68c8.15,3.16,8.28,10.71,8.72,13.86.35,2.59,1.63,5,2.08,7.58h0a10,10,0,0,1,.16,1.65c0,3-.32,5,2,7.52C453.7,196.81,452.38,204.63,449.91,205.71Z" transform="translate(-80.8 0.29)"/><path class="cls-3" d="M435,202.43v0h0a4,4,0,0,1-6.26.57l-1.49-1.6c.26-.16.51-.32.78-.46h0l.35-.21a7.23,7.23,0,0,0,1-.69h0a7.86,7.86,0,0,0,5.61,2.36Z" transform="translate(-80.8 0.29)"/><path class="cls-3" d="M442.79,201.44,441.32,203a4,4,0,0,1-6.26-.57h0l0,0a7.86,7.86,0,0,0,5.61-2.36h0c.2.16.4.31.61.45l.06,0,.3.2.35.2,0,0c.24.13.48.27.71.42Z" transform="translate(-80.8 0.29)"/></g></g><g id="heart"><path class="cls-3" d="M242.5,133.53a2.21,2.21,0,0,1-1.6-.06c-1.93-.79-3.78-1.53-5.41-2.18h0a83.43,83.43,0,0,1-12.06-5.49c-3.51-2.17-5.64-4.63-6.69-7.74a12.16,12.16,0,0,1,.26-8.86,10.45,10.45,0,0,1,6.28-5.7,9.83,9.83,0,0,1,6.47,0,12.52,12.52,0,0,1,3.17,1.66,12.52,12.52,0,0,1,1.51-3.24,9.79,9.79,0,0,1,5.12-4,10.47,10.47,0,0,1,8.45.71,12.19,12.19,0,0,1,5.59,6.88c1,3.12.86,6.36-.62,10.21a82.26,82.26,0,0,1-6.24,11.69c-.9,1.51-1.92,3.22-3,5A2.3,2.3,0,0,1,242.5,133.53ZM224,105.65a8.24,8.24,0,0,0-4.93,4.48,9.87,9.87,0,0,0-.18,7.19c.88,2.63,2.65,4.64,5.73,6.54a81.53,81.53,0,0,0,11.7,5.31h0c1.64.66,3.5,1.4,5.44,2.2,1.06-1.83,2.09-3.54,3-5.06A82,82,0,0,0,250.84,115c1.29-3.37,1.47-6,.58-8.67a10,10,0,0,0-4.52-5.61,8.2,8.2,0,0,0-6.63-.55,7.52,7.52,0,0,0-4,3.06,11,11,0,0,0-1.51,3.72,1.44,1.44,0,0,1-2.35.8,10.81,10.81,0,0,0-3.46-2A7.59,7.59,0,0,0,224,105.65Z" transform="translate(-80.8 0.29)"/></g><g id="lightning_bolt" data-name="lightning bolt"><path class="cls-3" d="M352.6,450l-9.05-2,10.85-12a1.12,1.12,0,0,0,.24-1.09,1.16,1.16,0,0,0-.83-.76l-13.11-2.9a1.15,1.15,0,0,0-1.21.52L328.57,450a1.12,1.12,0,0,0-.07,1,1.15,1.15,0,0,0,.79.65l9.27,2.05-9,12.55a1.12,1.12,0,0,0,1.57,1.55L353,452A1.12,1.12,0,0,0,352.6,450Zm-17.17,12,5.94-8.31a1.13,1.13,0,0,0-.67-1.75l-9.41-2.08L341,433.58l10.45,2.31-10.85,12a1.12,1.12,0,0,0,.58,1.85l8.51,1.88Z" transform="translate(-80.8 0.29)"/></g></svg>