<svg xmlns="http://www.w3.org/2000/svg" viewBox="0 0 458.54 641.07"><defs><style>.cls-1{fill:#129b12;}.cls-2{fill:#097c09;}.cls-3{fill:#009000;}.cls-4{fill:#bf6101;}.cls-5{fill:#9a4d01;}.cls-6{fill:#28a528;}.cls-7{fill:#fff;}</style></defs><title>coniferlogoAsset 1</title><g id="Layer_2" data-name="Layer 2"><g id="Layer_1-2" data-name="Layer 1"><path class="cls-1" d="M458.54,240.53a86.42,86.42,0,0,0-52.79-79.62A77.07,77.07,0,0,0,303.48,56.3a77.06,77.06,0,0,0-148.42,0A77.06,77.06,0,0,0,52.79,160.91,86.39,86.39,0,0,0,82.46,326.8c6.4,23.17,31.1,40.44,60.62,40.44,16.73,0,31.91-5.56,43.1-14.58,11.18,9,26.36,14.58,43.09,14.58s31.91-5.56,43.1-14.58c11.18,9,26.36,14.58,43.09,14.58,29.52,0,54.23-17.27,60.62-40.44A86.38,86.38,0,0,0,458.54,240.53Z"/><path class="cls-2" d="M224.65.15c-1,.06-1.9.13-2.83.22L221,.46c-1,.11-2,.24-3,.38l-.56.09q-1.78.27-3.54.63h0c20.23,4.11,39.17,18.2,51.17,36a42.65,42.65,0,0,0,38.16,18.8l.3,0A77.09,77.09,0,0,0,229.27,0c-1.24,0-2.47,0-3.7.09C225.26.11,225,.14,224.65.15Z"/><path class="cls-2" d="M405.75,160.91A77.08,77.08,0,0,0,321.86,50.05a77.06,77.06,0,0,1,53,110.86A86.39,86.39,0,0,1,345.23,326.8c-5.24,19-22.78,34-45.2,38.81a73.47,73.47,0,0,0,15.43,1.63c29.52,0,54.23-17.27,60.62-40.44a86.39,86.39,0,0,0,29.67-165.89Z"/><path class="cls-3" d="M174.09,339.89c-7,11.79-35.75,25-46.43,25.72,1.17.25,2.36.47,3.57.67l.28.05c1.22.19,2.45.36,3.69.49h.1c1.12.12,2.24.2,3.38.27l.83,0c1.18.05,2.37.09,3.57.09h0a69.33,69.33,0,0,0,40-12.29l1.9-1.38-9.66-15.86Z"/><path class="cls-4" d="M267.8,359.57l33-52.1A9.87,9.87,0,0,0,299,294.74h0a9.86,9.86,0,0,0-13.5.51l-24.32,24.62a4.78,4.78,0,0,1-8.13-4l7.14-53A9.87,9.87,0,0,0,251,251.72l-6.7-.45A9.87,9.87,0,0,0,234,259.41l-12.77,72.51a4.77,4.77,0,0,1-8.41,2.19L172.8,285a9.88,9.88,0,0,0-11.49-2.87l-7,2.94a9.87,9.87,0,0,0-4.65,14.18l41.08,68.47a51.3,51.3,0,0,1,6.91,33c-5.32,41.06-11.93,79.78-39,111.32h141.2c-29-33.77-36.11-75.76-39.95-120A52.22,52.22,0,0,1,267.8,359.57Z"/><path class="cls-5" d="M300.82,307.47A9.87,9.87,0,0,0,299,294.74h0a9.86,9.86,0,0,0-13.5.51l-10.86,11h0l-13.46,13.63a4.78,4.78,0,0,1-8.13-4l7.15-53a9.88,9.88,0,0,0-8.7-11.12l-20.1,125c-.34,1.61-.61,3.24-.79,4.88h0a53.29,53.29,0,0,0-.14,10.34c3.84,44.28,11,86.27,40,120h29.48c-29-33.77-36.11-75.76-39.94-120a52.12,52.12,0,0,1,7.87-32.39Z"/><path class="cls-6" d="M214.6,60.5a53.5,53.5,0,0,0-48.67,31.29,53.48,53.48,0,0,0-77.15,70.46A53.51,53.51,0,0,0,97,268.63c29.54,0,171.12-125.08,171.12-154.63A53.5,53.5,0,0,0,214.6,60.5Z"/></g><g id="Layer_3" data-name="Layer 3"><path class="cls-7" d="M80.53,636.93A48.23,48.23,0,0,1,60.41,641c-21.16,0-35-14.4-35-35.85,0-21.62,14.75-37.4,37.69-37.4,7.52,0,14.29,1.91,17.73,3.74L78,581.29a30.88,30.88,0,0,0-14.91-3.38c-16,0-24.78,12-24.75,26.57,0,16.25,10.45,26.25,24.44,26.25a37.05,37.05,0,0,0,15.61-3.37Z"/><path class="cls-7" d="M158.12,603.73c0,26-18,37.34-34.89,37.34-19,0-33.72-13.87-33.72-36.14,0-23.47,15.43-37.2,34.84-37.2C144.51,567.73,158.12,582.36,158.12,603.73Zm-55.63.81c0,15.39,8.82,27,21.27,27,12.23,0,21.37-11.43,21.37-27.35,0-11.87-6-26.87-21.14-26.87C109,577.29,102.49,591.24,102.49,604.54Z"/><path class="cls-7" d="M174.25,588.27c0-7.32-.24-13.13-.58-18.94h11.27l.71,11.53H186c3.45-6.59,11.61-13.13,23.2-13.13,9.63,0,24.72,5.8,24.72,29.9v41.84H221.23V599c0-11.34-4.28-20.84-16.22-20.84-8.37,0-14.9,5.95-17.19,13.09a19.83,19.83,0,0,0-.88,5.92v42.27H174.25Z"/><path class="cls-7" d="M269,549.49a7.69,7.69,0,0,1-8.11,7.93,7.61,7.61,0,0,1-7.7-7.93,7.75,7.75,0,0,1,7.93-7.94A7.64,7.64,0,0,1,269,549.49Zm-14.25,90V569.33h12.69v70.14Z"/><path class="cls-7" d="M289.93,639.47V579h-9.79v-9.66h9.79v-3.39c0-9.89,2.28-18.84,8.16-24.57a24.41,24.41,0,0,1,17.05-6.48A27.6,27.6,0,0,1,326,537l-1.69,9.8a19.47,19.47,0,0,0-8.19-1.6c-10.78,0-13.6,9.55-13.6,20.38v3.8h16.95V579H302.62v60.48Z"/><path class="cls-7" d="M336.3,606.7c.25,17.25,11.19,24.36,24,24.36,9.13,0,14.71-1.64,19.43-3.6l2.24,9.07c-4.47,2-12.26,4.47-23.41,4.47-21.55,0-34.51-14.36-34.51-35.41,0-21.26,12.52-37.86,33-37.86,22.89,0,28.87,20.08,28.87,33a31.42,31.42,0,0,1-.43,6Zm37.33-9.17c.13-8-3.29-20.66-17.59-20.66-13,0-18.57,11.78-19.59,20.66Z"/><path class="cls-7" d="M401.8,591.17c0-8.28-.21-15.34-.58-21.84H412.4l.48,13.76h.46c3.27-9.42,11-15.36,19.53-15.36a14.57,14.57,0,0,1,3.55.36v12a20.53,20.53,0,0,0-4.34-.37c-9,0-15.34,6.78-17.07,16.32a33.74,33.74,0,0,0-.52,6v37.47H401.8Z"/></g></g></svg>